<svg id="Layer_1" data-name="Layer 1" xmlns="http://www.w3.org/2000/svg" viewBox="0 0 43 95.17"><defs><style>.cls-1{fill:#d1d3d4;}.cls-2,.cls-4{fill:none;stroke-width:3px;}.cls-2{stroke:#0061cd;}.cls-2,.cls-3,.cls-4{stroke-miterlimit:10;}.cls-3{fill:#58595b;}.cls-3,.cls-4{stroke:#58595b;}</style></defs><path class="cls-1" d="M21.5,42.5a21,21,0,1,1,21-21,21,21,0,0,1-21,21" transform="translate(0 52.67)"/><line class="cls-2" x1="10.91" y1="84.76" x2="32.09" y2="63.57"/><line class="cls-2" x1="10.91" y1="63.57" x2="32.09" y2="84.76"/><path class="cls-3" d="M21.5-10.17a21,21,0,0,1-21-21,21,21,0,0,1,21-21,21,21,0,0,1,21,21,21,21,0,0,1-21,21m0-40a19,19,0,0,0-19,19,19,19,0,0,0,19,19,19,19,0,0,0,19-19A19,19,0,0,0,21.5-50.17Z" transform="translate(0 52.67)"/><line class="cls-4" x1="10.91" y1="32.09" x2="32.09" y2="10.91"/><line class="cls-4" x1="10.91" y1="10.91" x2="32.09" y2="32.09"/></svg>