<?xml version="1.0" encoding="utf-8"?>
<!-- Generator: Adobe Illustrator 25.4.1, SVG Export Plug-In . SVG Version: 6.00 Build 0)  -->
<svg version="1.1" id="Layer_1" xmlns="http://www.w3.org/2000/svg" xmlns:xlink="http://www.w3.org/1999/xlink" x="0px" y="0px"
	 viewBox="0 0 68 69" style="enable-background:new 0 0 68 69;" xml:space="preserve">
<style type="text/css">
	.st0{fill-rule:evenodd;clip-rule:evenodd;fill:#E6E6E6;}
</style>
<g>
	<path class="st0" d="M42.36,35.33l-18.06,0c-0.71,0-1.29,0.3-1.29,0.67c0,0.37,0.58,0.67,1.29,0.67l18.06,0
		c0.71,0,1.29-0.3,1.29-0.67C43.65,35.63,43.07,35.33,42.36,35.33z"/>
	<path class="st0" d="M42.36,40.8l-18.06,0c-0.71,0-1.29,0.3-1.29,0.67c0,0.37,0.58,0.67,1.29,0.67l18.06,0
		c0.71,0,1.29-0.3,1.29-0.67S43.07,40.8,42.36,40.8z"/>
	<path class="st0" d="M43.98,28.68c0,0.37-0.3,0.67-0.67,0.67s-0.67-0.3-0.67-0.67s0.3-0.67,0.67-0.67S43.98,28.31,43.98,28.68z
		 M37.33,28.68c0,0.37-0.3,0.67-0.67,0.67s-0.67-0.3-0.67-0.67s0.3-0.67,0.67-0.67S37.33,28.31,37.33,28.68z M37.33,24.02h3.33
		c0.18,0,0.35,0.07,0.47,0.2c0.13,0.12,0.2,0.29,0.2,0.47c0,0.18-0.07,0.35-0.2,0.47c-0.12,0.13-0.29,0.2-0.47,0.2h-3.33v1.45
		c0.78,0.27,1.33,1.01,1.33,1.88c0,1.1-0.89,2-2,2c-1.1,0-2-0.89-2-2c0-0.87,0.56-1.61,1.33-1.88v-4.77c0-0.18-0.07-0.35-0.2-0.47
		c-0.12-0.13-0.29-0.2-0.47-0.2c-0.37,0-0.67,0.3-0.67,0.67c0,0.18-0.07,0.35-0.2,0.47c-0.12,0.13-0.29,0.2-0.47,0.2
		s-0.35-0.07-0.47-0.2c-0.13-0.12-0.2-0.29-0.2-0.47c0-1.1,0.89-2,2-2c0.53,0,1.04,0.21,1.41,0.59c0.37,0.37,0.59,0.88,0.59,1.41
		V24.02z M30.67,28.68c0,0.37-0.3,0.67-0.67,0.67c-0.37,0-0.67-0.3-0.67-0.67s0.3-0.67,0.67-0.67
		C30.37,28.01,30.67,28.31,30.67,28.68z M30.67,24.02H34c0.18,0,0.35,0.07,0.47,0.2c0.13,0.12,0.2,0.29,0.2,0.47
		c0,0.18-0.07,0.35-0.2,0.47c-0.12,0.13-0.29,0.2-0.47,0.2h-3.33v1.45c0.78,0.27,1.33,1.01,1.33,1.88c0,1.1-0.89,2-2,2s-2-0.89-2-2
		c0-0.87,0.56-1.61,1.33-1.88v-4.77c0-0.18-0.07-0.35-0.2-0.47c-0.12-0.13-0.29-0.2-0.47-0.2c-0.37,0-0.67,0.3-0.67,0.67
		s-0.3,0.67-0.67,0.67c-0.18,0-0.35-0.07-0.47-0.2c-0.13-0.12-0.2-0.29-0.2-0.47c0-1.1,0.89-2,2-2c0.53,0,1.04,0.21,1.41,0.59
		c0.37,0.37,0.59,0.88,0.59,1.41V24.02z M24.01,28.68c0,0.37-0.3,0.67-0.67,0.67c-0.37,0-0.67-0.3-0.67-0.67s0.3-0.67,0.67-0.67
		C23.71,28.01,24.01,28.31,24.01,28.68z M24.01,24.02h3.33c0.18,0,0.35,0.07,0.47,0.2c0.13,0.12,0.2,0.29,0.2,0.47
		c0,0.18-0.07,0.35-0.2,0.47c-0.12,0.13-0.29,0.2-0.47,0.2h-3.33v1.45c0.78,0.27,1.33,1.01,1.33,1.88c0,1.1-0.89,2-2,2s-2-0.89-2-2
		c0-0.87,0.56-1.61,1.33-1.88v-4.77c0-0.18-0.07-0.35-0.2-0.47c-0.12-0.13-0.29-0.2-0.47-0.2c-0.37,0-0.67,0.3-0.67,0.67
		c0,0.18-0.07,0.35-0.2,0.47c-0.12,0.13-0.29,0.2-0.47,0.2c-0.18,0-0.35-0.07-0.47-0.2c-0.13-0.12-0.2-0.29-0.2-0.47
		c0-1.1,0.89-2,2-2c0.53,0,1.04,0.21,1.41,0.59c0.37,0.37,0.59,0.88,0.59,1.41V24.02z M45.87,49.31H20.02
		c-1.84,0-3.33-1.49-3.33-3.33V28.13c-0.78,0.27-1.33,1.01-1.33,1.88v18.64c0,1.1,0.89,2,2,2h26.63
		C44.85,50.64,45.59,50.09,45.87,49.31z M43.98,24.02h2.66c1.84,0,3.33,1.49,3.33,3.33v18.64c0,1.63-1.17,2.99-2.72,3.27
		c-0.29,1.55-1.64,2.72-3.27,2.72H17.36c-1.84,0-3.33-1.49-3.33-3.33V30.01c0-1.63,1.17-2.99,2.72-3.27
		c0.29-1.55,1.64-2.72,3.27-2.72h0.67c0.18,0,0.35,0.07,0.47,0.2c0.13,0.12,0.2,0.29,0.2,0.47c0,0.18-0.07,0.35-0.2,0.47
		c-0.12,0.13-0.29,0.2-0.47,0.2h-0.67c-1.1,0-2,0.89-2,2v18.64c0,1.1,0.89,2,2,2h26.63c1.1,0,2-0.89,2-2V27.35c0-1.1-0.89-2-2-2
		h-2.66v1.45c0.78,0.27,1.33,1.01,1.33,1.88c0,1.1-0.89,2-2,2c-1.1,0-2-0.89-2-2c0-0.87,0.56-1.61,1.33-1.88v-4.77
		c0-0.18-0.07-0.35-0.2-0.47c-0.12-0.13-0.29-0.2-0.47-0.2c-0.37,0-0.67,0.3-0.67,0.67s-0.3,0.67-0.67,0.67h0
		c-0.18,0-0.35-0.07-0.47-0.2c-0.13-0.12-0.2-0.29-0.2-0.47v0c0-1.1,0.89-2,2-2c0.53,0,1.04,0.21,1.41,0.59
		c0.37,0.37,0.59,0.88,0.59,1.41L43.98,24.02z"/>
</g>
</svg>
