<svg xmlns="http://www.w3.org/2000/svg" viewBox="0 0 323.93 65.99"><defs><style>.cls-1{fill:#fff;}.cls-2,.cls-4{fill:none;}.cls-2{stroke:#fff;stroke-width:1.04px;}.cls-3{fill:#ffce34;}</style></defs><g id="Layer_2" data-name="Layer 2"><g id="Layer_1-2" data-name="Layer 1"><path class="cls-1" d="M228.9,33c-.33-1-.91-2.14-2.19-2.14a1.48,1.48,0,0,0-1.51,1.55c0,.86.56,1.36,1.94,2,1.64.8,2.77,1.67,2.77,3.22,0,1.78-1.51,3.17-3.8,3.17a5.58,5.58,0,0,1-1.58-.22,7,7,0,0,1-.95-.35,19.1,19.1,0,0,1-.45-2.65l.55-.17c.31,1,1.24,2.75,2.74,2.75A1.51,1.51,0,0,0,228,38.58c0-.92-.69-1.5-1.86-2.13-1.61-.81-2.72-1.65-2.72-3.15,0-1.72,1.36-3.07,3.58-3.07a6.34,6.34,0,0,1,2.17.42c.06.58.17,1.27.3,2.23l-.55.13Z" transform="translate(0 4.31)"/><path class="cls-1" d="M238.21,30.88c-1.57,0-2.8,1.67-2.8,4.38s1.19,4.94,3.19,4.94c1.48,0,2.69-1.45,2.69-4.33,0-3.11-1.27-5-3.06-5Zm.31-.64a5,5,0,0,1,5.16,5.19,5.33,5.33,0,1,1-5.17-5.2h0Z" transform="translate(0 4.31)"/><path class="cls-1" d="M257.22,31c-.86.05-1.25.37-1.33.92a12.51,12.51,0,0,0-.14,2.17v1.7a5.45,5.45,0,0,1-1.13,3.91,4,4,0,0,1-2.89,1.14A4.37,4.37,0,0,1,249,40c-.89-.69-1.29-1.84-1.29-3.67V32.68c0-1.47-.16-1.58-1.32-1.69v-.55h4.7V31c-1.14.11-1.3.22-1.3,1.69v3.39c0,2.34.84,3.7,2.53,3.7,1.86,0,2.67-1.41,2.67-4V34.08a11.79,11.79,0,0,0-.16-2.17c-.07-.55-.45-.86-1.51-.92v-.55h3.92V31Z" transform="translate(0 4.31)"/><path class="cls-1" d="M268.55,33.13a3.49,3.49,0,0,0-.69-1.61c-.27-.28-.67-.38-1.58-.38h-.72v7.39c0,1.33.16,1.42,1.54,1.53v.55H262v-.55c1.32-.11,1.47-.2,1.47-1.53V31.14h-.53c-1.28,0-1.56.17-1.8.42a4,4,0,0,0-.66,1.58h-.56c.06-1.14.16-2.28.18-3.08h.38c.25.36.45.39.89.39h6.28a1,1,0,0,0,.9-.39h.38c0,.65.09,2,.17,3l-.55,0Z" transform="translate(0 4.31)"/><path class="cls-1" d="M283.5,31c-1.22.11-1.31.2-1.31,1.53v6c0,1.31.12,1.41,1.31,1.52v.55h-4.77v-.55c1.25-.11,1.36-.22,1.36-1.53V35.63h-4.26v2.91c0,1.33.12,1.42,1.28,1.53v.55h-4.65v-.55c1.14-.11,1.28-.2,1.28-1.53v-6c0-1.33-.14-1.42-1.34-1.53v-.55h4.69V31c-1.13.11-1.25.2-1.25,1.53v2.3h4.26v-2.3c0-1.33-.13-1.42-1.28-1.53v-.55h4.69V31Z" transform="translate(0 4.31)"/><path class="cls-1" d="M295.34,38c-.09.7-.42,2.13-.54,2.6h-8v-.55c1.33-.11,1.48-.2,1.48-1.53v-6c0-1.36-.16-1.44-1.27-1.53v-.55h7.36c0,.28.09,1.38.16,2.34l-.57.08a3.16,3.16,0,0,0-.64-1.34c-.27-.28-.69-.39-1.57-.39H291c-.58,0-.64,0-.64.55V35h1.05c1.31,0,1.52-.08,1.73-1.17h.56V37h-.56c-.22-1.13-.41-1.19-1.73-1.19h-1.05v2.7c0,.74.06,1.13.38,1.28a4.21,4.21,0,0,0,1.4.16,2.29,2.29,0,0,0,1.74-.5,5.89,5.89,0,0,0,.88-1.53l.55.1Z" transform="translate(0 4.31)"/><path class="cls-1" d="M302.19,35.63a2.28,2.28,0,0,0,1.54-.42,2.25,2.25,0,0,0,.75-1.86c0-1.66-1-2.27-1.84-2.27-.39,0-.61.06-.7.16s-.14.25-.14.58v3.81Zm5.88,5.13h-.47c-2-.1-2.58-.53-3.21-1.52-.4-.64-.83-1.49-1.28-2.3a1.06,1.06,0,0,0-1-.69h-.3v2.28c0,1.28.15,1.44,1.32,1.55v.55h-4.72v-.55c1.17-.11,1.34-.26,1.34-1.55v-6c0-1.25-.14-1.41-1.28-1.52v-.55h4.39a4.69,4.69,0,0,1,2.78.59,2.37,2.37,0,0,1,1.06,2.08,2.71,2.71,0,0,1-1.95,2.54c.22.46.81,1.5,1.26,2.22a13.32,13.32,0,0,0,1.2,1.69,2.25,2.25,0,0,0,.95.67l-.06.52Z" transform="translate(0 4.31)"/><path class="cls-1" d="M321.41,31c-.85.05-1.17.25-1.25,1a24,24,0,0,0-.14,2.59v6.21h-.75L312.77,33h0V36.5a23.9,23.9,0,0,0,.12,2.53c.08.69.35,1,1.5,1v.55h-3.83v-.55c.88-.06,1.24-.31,1.3-1A18.5,18.5,0,0,0,312,36.5V33.24c0-1,0-1.32-.33-1.68a1.56,1.56,0,0,0-1.29-.56v-.55h2.89l6,6.86h.06V34.56c0-1.37-.1-2.11-.12-2.56-.08-.67-.4-.94-1.55-1v-.55h3.81V31Z" transform="translate(0 4.31)"/><path class="cls-1" d="M230.07,54.2v-.5c1.07-.11,1.15-.21,1.13-1.52l0-5.46h-.07L228,54.1h-.4l-2.9-7.24h0l-.17,3.71a13.76,13.76,0,0,0,0,2.29c.06.64.34.76,1.28.85v.5h-3.4v-.5c.8-.07,1.06-.33,1.15-.82a23.56,23.56,0,0,0,.3-2.67l.23-2.81c.11-1.62,0-1.82-1.2-1.93V45h2.94l2.74,6.22L231.26,45h2.86v.5c-1.14.11-1.2.23-1.17,1.41l.13,5.31c0,1.31.1,1.41,1.2,1.52v.5h-4.21Z" transform="translate(0 4.31)"/><path class="cls-1" d="M237.12,54.2v-.5c1-.1,1.18-.2,1.18-1.39V46.88c0-1.21-.13-1.31-1.18-1.41V45h4.26v.5c-1,.1-1.18.2-1.18,1.41v5.43c0,1.19.13,1.29,1.18,1.39v.5Z" transform="translate(0 4.31)"/><path class="cls-1" d="M249.8,47.29c-.3-.9-.82-1.94-2-1.94a1.36,1.36,0,0,0-1.38,1.41c0,.78.51,1.23,1.76,1.86,1.49.73,2.51,1.52,2.51,2.92,0,1.62-1.37,2.88-3.45,2.88a5,5,0,0,1-1.43-.2,7.13,7.13,0,0,1-.87-.31,18.5,18.5,0,0,1-.41-2.41l.5-.15c.29.91,1.12,2.5,2.48,2.5a1.37,1.37,0,0,0,1.42-1.49c0-.84-.62-1.36-1.69-1.93-1.46-.74-2.46-1.5-2.46-2.87,0-1.56,1.23-2.78,3.25-2.78a5.84,5.84,0,0,1,2,.38c.06.52.15,1.15.27,2l-.48.1Z" transform="translate(0 4.31)"/><path class="cls-1" d="M259,47.29c-.3-.9-.83-1.94-2-1.94a1.36,1.36,0,0,0-1.38,1.41c0,.78.51,1.23,1.76,1.86,1.49.73,2.51,1.52,2.51,2.92,0,1.62-1.38,2.88-3.45,2.88a5.06,5.06,0,0,1-1.44-.2,6.3,6.3,0,0,1-.86-.31,16.92,16.92,0,0,1-.41-2.41l.5-.15c.28.91,1.12,2.5,2.48,2.5a1.37,1.37,0,0,0,1.42-1.49c0-.84-.62-1.36-1.69-1.93-1.46-.74-2.47-1.5-2.47-2.87,0-1.56,1.23-2.78,3.25-2.78a5.73,5.73,0,0,1,2,.38c.06.52.16,1.15.27,2l-.47.1Z" transform="translate(0 4.31)"/><path class="cls-1" d="M262.81,54.2v-.5c1.05-.1,1.18-.2,1.18-1.39V46.88c0-1.21-.13-1.31-1.18-1.41V45h4.26v.5c-1.05.1-1.18.2-1.18,1.41v5.43c0,1.19.13,1.29,1.18,1.39v.5Z" transform="translate(0 4.31)"/><path class="cls-1" d="M275.48,47.29c-.3-.9-.82-1.94-2-1.94a1.36,1.36,0,0,0-1.38,1.41c0,.78.51,1.23,1.76,1.86,1.49.73,2.51,1.52,2.51,2.92,0,1.62-1.38,2.88-3.45,2.88a5,5,0,0,1-1.44-.2,7.13,7.13,0,0,1-.87-.31,16.66,16.66,0,0,1-.42-2.41l.5-.15c.28.91,1.12,2.5,2.48,2.5a1.37,1.37,0,0,0,1.42-1.49c0-.84-.62-1.36-1.68-1.93-1.46-.74-2.47-1.5-2.47-2.87,0-1.56,1.23-2.78,3.25-2.78a5.73,5.73,0,0,1,2,.38c.06.52.15,1.15.27,2l-.46.1Z" transform="translate(0 4.31)"/><path class="cls-1" d="M284.71,47.29c-.3-.9-.82-1.94-2-1.94a1.35,1.35,0,0,0-1.38,1.41c0,.78.51,1.23,1.76,1.86,1.49.73,2.51,1.52,2.51,2.92,0,1.62-1.37,2.88-3.44,2.88a5,5,0,0,1-1.44-.2,6.3,6.3,0,0,1-.86-.31,18.18,18.18,0,0,1-.42-2.41l.5-.15c.28.91,1.12,2.5,2.48,2.5a1.37,1.37,0,0,0,1.42-1.49c0-.84-.62-1.36-1.69-1.93-1.47-.74-2.48-1.5-2.48-2.87,0-1.56,1.24-2.78,3.25-2.78a5.78,5.78,0,0,1,2,.38c.06.52.16,1.15.27,2l-.46.1Z" transform="translate(0 4.31)"/><path class="cls-1" d="M288.49,54.2v-.5c1.05-.1,1.18-.2,1.18-1.39V46.88c0-1.21-.13-1.31-1.18-1.41V45h4.26v.5c-1.05.1-1.18.2-1.18,1.41v5.43c0,1.19.13,1.29,1.18,1.39v.5Z" transform="translate(0 4.31)"/><path class="cls-1" d="M299,49.8a2.21,2.21,0,0,0,.77.14c.52,0,1.66-.37,1.66-2.29,0-1.6-.91-2.13-1.77-2.13a.86.86,0,0,0-.53.14.59.59,0,0,0-.13.44v3.7Zm.92-4.83a4.28,4.28,0,0,1,2.48.55,2.41,2.41,0,0,1,1.05,2.09,2.93,2.93,0,0,1-2.89,3,4.37,4.37,0,0,1-.6,0l-1-.23V52.3c0,1.2.13,1.31,1.35,1.41v.48h-4.42v-.48c1.07-.1,1.2-.2,1.2-1.41V46.87c0-1.21-.13-1.29-1.11-1.41V45h3.91Z" transform="translate(0 4.31)"/><path class="cls-1" d="M309.31,49.8a2.21,2.21,0,0,0,.77.14c.53,0,1.66-.37,1.66-2.29,0-1.6-.91-2.13-1.77-2.13a.86.86,0,0,0-.53.14.59.59,0,0,0-.13.44v3.7Zm.93-4.83a4.34,4.34,0,0,1,2.49.55,2.39,2.39,0,0,1,1,2.09,2.93,2.93,0,0,1-2.9,3,4.3,4.3,0,0,1-.59,0l-1-.23V52.3c0,1.2.13,1.31,1.35,1.41v.48h-4.41v-.48c1.06-.1,1.19-.2,1.19-1.41V46.87c0-1.21-.13-1.29-1.11-1.41V45h3.9Z" transform="translate(0 4.31)"/><path class="cls-1" d="M316.47,54.2v-.5c1-.1,1.18-.2,1.18-1.39V46.88c0-1.21-.13-1.31-1.18-1.41V45h4.26v.5c-1.05.1-1.18.2-1.18,1.41v5.43c0,1.19.13,1.29,1.18,1.39v.5Z" transform="translate(0 4.31)"/><path class="cls-1" d="M227.25,23a1.69,1.69,0,0,0-.29-.71c-.12-.14-.32-.18-.67-.18h-.37v3c0,.67.06.7.73.75v.29h-2.44v-.29c.63-.05.69-.09.69-.75v-3h-.25c-.49,0-.65.07-.77.21a1.72,1.72,0,0,0-.28.67h-.3c0-.57.08-1.06.08-1.4h.22c.11.15.19.17.41.17h2.87a.39.39,0,0,0,.38-.17h.21c0,.33.05,1,.09,1.39l-.31,0Z" transform="translate(0 4.31)"/><path class="cls-1" d="M232.58,26.14v-.29c.54-.05.6-.1.6-.75V24.05H231.3V25.1c0,.65,0,.71.55.75v.29h-2.23v-.29c.59,0,.64-.09.64-.75V22.84c0-.66-.06-.7-.67-.76V21.8h2.28v.28c-.52.06-.57.09-.57.76v.8h1.88v-.8c0-.66-.07-.7-.59-.76V21.8h2.25v.27c-.57.07-.63.12-.63.78v2.26c0,.66.06.7.63.75v.29h-2.26Z" transform="translate(0 4.31)"/><path class="cls-1" d="M241,25a9.71,9.71,0,0,1-.25,1.19h-3.8v-.29c.63-.05.68-.09.68-.75V22.82c0-.66-.05-.69-.63-.73V21.8h3.57c0,.19,0,.65.07,1.09l-.29,0a1.88,1.88,0,0,0-.26-.55c-.12-.15-.3-.21-.76-.21h-.39c-.26,0-.27,0-.27.27V23.7h.58c.53,0,.59-.06.67-.5h.3v1.42h-.3c-.07-.44-.14-.52-.67-.52h-.58v1c0,.39,0,.56.16.63a1.39,1.39,0,0,0,.7.1,1,1,0,0,0,.8-.24,2.1,2.1,0,0,0,.38-.64Z" transform="translate(0 4.31)"/><path class="cls-1" d="M251.43,22.07c-.41,0-.58.12-.62.39a8.26,8.26,0,0,0-.05,1.12v.51a2.25,2.25,0,0,1-.52,1.68,1.86,1.86,0,0,1-1.31.49,2.15,2.15,0,0,1-1.27-.35,1.78,1.78,0,0,1-.62-1.57V22.81c0-.64,0-.68-.63-.73V21.8h2.29v.28c-.57.06-.62.09-.62.73v1.31c0,1.08.4,1.61,1.13,1.61s1.14-.58,1.14-1.67V23.6a7.81,7.81,0,0,0,0-1.13c0-.27-.21-.36-.73-.39V21.8h1.86v.27Z" transform="translate(0 4.31)"/><path class="cls-1" d="M258.32,22.07c-.4,0-.6.12-.62.39a9.35,9.35,0,0,0-.06,1.19v2.53h-.46l-2.78-3.3h0v1.37a11.45,11.45,0,0,0,.05,1.18c0,.3.23.38.73.41v.29h-1.85v-.29c.4,0,.59-.12.62-.41a7.91,7.91,0,0,0,.07-1.18V23c0-.76-.17-.9-.78-.95v-.28h1.51l2.5,2.84h0v-1a8.73,8.73,0,0,0-.06-1.17c0-.3-.2-.39-.73-.42v-.28h1.86v.28Z" transform="translate(0 4.31)"/><path class="cls-1" d="M260.25,26.14v-.29c.57,0,.63-.09.63-.71V22.81c0-.64-.06-.68-.63-.73v-.29h2.31v.29c-.58,0-.64.08-.64.73v2.32c0,.64.06.68.64.72v.29Z" transform="translate(0 4.31)"/><path class="cls-1" d="M269.56,22.08c-.48.07-.6.16-.88.7s-.94,2.08-1.5,3.46h-.35c-.51-1.21-1.07-2.51-1.52-3.57a.77.77,0,0,0-.78-.58V21.8h2.24v.29l-.23,0c-.25.05-.28.13-.16.46l1,2.35c.28-.64.78-1.91.89-2.29s.09-.48-.23-.53l-.18,0V21.8h1.71v.28Z" transform="translate(0 4.31)"/><path class="cls-1" d="M275.56,25a9.71,9.71,0,0,1-.25,1.19h-3.8v-.29c.63-.05.69-.09.69-.75V22.82c0-.66-.06-.69-.63-.73V21.8h3.57c0,.19,0,.65.07,1.09l-.29,0a1.66,1.66,0,0,0-.26-.55c-.12-.15-.3-.21-.76-.21h-.4c-.26,0-.27,0-.27.27V23.7h.58c.53,0,.59-.06.67-.5h.31v1.42h-.31c-.07-.44-.14-.52-.67-.52h-.58v1c0,.39,0,.56.16.63a1.34,1.34,0,0,0,.69.1c.41,0,.64-.05.81-.24a2.1,2.1,0,0,0,.38-.64Z" transform="translate(0 4.31)"/><path class="cls-1" d="M279.53,24a1.1,1.1,0,0,0,.67-.16.85.85,0,0,0,.34-.75.86.86,0,0,0-.91-.94c-.3,0-.37.08-.37.33V24Zm2.76,2.23H282c-.94,0-1.23-.22-1.49-.6a7.53,7.53,0,0,1-.61-1,.46.46,0,0,0-.5-.31h-.14v.84c0,.62.06.67.63.72v.29H277.6v-.29c.58,0,.64-.09.64-.71V22.77c0-.63-.05-.67-.61-.71v-.28H280a2.24,2.24,0,0,1,1.17.22,1,1,0,0,1,.5.9,1.22,1.22,0,0,1-.93,1.12c.12.22.43.69.65,1a4.25,4.25,0,0,0,.52.67,1.24,1.24,0,0,0,.45.26l0,.24Z" transform="translate(0 4.31)"/><path class="cls-1" d="M287,23.05c-.18-.58-.51-1.05-1.07-1.05a.62.62,0,0,0-.66.62c0,.43.36.6.71.74l.24.1c.72.29,1.3.63,1.3,1.37s-.73,1.42-1.78,1.42a2.63,2.63,0,0,1-1.29-.34,8.16,8.16,0,0,1-.23-1.21l.29-.07c.18.54.66,1.3,1.34,1.3a.66.66,0,0,0,.72-.68c0-.37-.26-.58-.71-.78l-.29-.12c-.53-.22-1.17-.59-1.17-1.31s.61-1.38,1.7-1.38a2.85,2.85,0,0,1,1,.22c.05.26.1.59.16,1.09l-.3.08Z" transform="translate(0 4.31)"/><path class="cls-1" d="M289.6,26.14v-.29c.57,0,.64-.09.64-.71V22.81c0-.64-.06-.68-.64-.73v-.29h2.31v.29c-.58,0-.64.08-.64.73v2.32c0,.64.05.68.64.72v.29Z" transform="translate(0 4.31)"/><path class="cls-1" d="M298,23a1.69,1.69,0,0,0-.29-.71c-.12-.14-.33-.18-.66-.18h-.37v3c0,.67.07.7.72.75v.29h-2.44v-.29c.63-.05.68-.09.68-.75v-3h-.25c-.49,0-.65.07-.77.21a1.58,1.58,0,0,0-.28.67H294c0-.57.08-1.06.08-1.4h.21c.11.15.19.17.41.17h2.87a.37.37,0,0,0,.37-.17h.21c0,.33.05,1,.1,1.39L298,23Z" transform="translate(0 4.31)"/><path class="cls-1" d="M304.88,22.08a1,1,0,0,0-.88.53c-.19.3-.43.7-.78,1.35a.78.78,0,0,0-.11.4v.77c0,.6.07.66.72.71v.29h-2.47v-.29c.66-.06.71-.1.71-.7v-.7a.77.77,0,0,0-.14-.47c-.24-.43-.48-.83-.8-1.36s-.37-.49-.79-.53v-.29h2.15v.29l-.26.05c-.2,0-.2.13-.1.32.26.47.54.95.77,1.36.28-.5.55-1,.67-1.3s.09-.35-.14-.39l-.25,0v-.29h1.69v.29Z" transform="translate(0 4.31)"/><path class="cls-1" d="M312.62,22c-.6,0-1.17.65-1.17,1.85s.57,2.07,1.34,2.07c.62,0,1.16-.49,1.16-1.83,0-1.06-.47-2.09-1.33-2.09Zm.1-.33a2.23,2.23,0,0,1,2.39,2.24,2.28,2.28,0,0,1-2.4,2.36,2.25,2.25,0,0,1-2.42-2.21,2.33,2.33,0,0,1,2.43-2.39Z" transform="translate(0 4.31)"/><path class="cls-1" d="M320.6,22.94a1.94,1.94,0,0,0-.25-.57c-.11-.15-.28-.24-.75-.24h-.46c-.24,0-.25,0-.25.27v1.42h.64c.61,0,.67-.05.77-.52h.3v1.46h-.3c-.08-.53-.15-.56-.78-.56h-.63v.94c0,.61.07.66.72.7v.29h-2.37v-.29c.56,0,.62-.09.62-.69V22.79c0-.63-.06-.68-.62-.72v-.29h3.58c0,.19,0,.65.08,1.12l-.3,0Z" transform="translate(0 4.31)"/><path class="cls-1" d="M202.54,17.42c12.91,3.79,13.07,17.86,13.07,17.86l1.32.32L215.87,37l-.05,1.69,1.24.21-1.54,3.5-.13,9.75.82.11.3,3.26-11.17-1.35-15.63,0-10.92,1.22.35-3.32.61,0-.08-10.92L178,38.67l1.7-.69-1.41-3.21,1.27-.08C180.78,20.27,193,17.36,193,17.36l-.42-.69,0-.9.49-.39V13.87l.57-.86.29-.11-.13-7.55-.42-.61,0-.85.56-.24,0-1,2.81-1.43.53-.69h1.54l.53.69,2.63,1.43,0,1,.51.24-.06.85-.42.61-.13,7.55.32.08.48.82v1.51l.48.42,0,.9-.51.79Z" transform="translate(0 4.31)"/><path class="cls-2" d="M202.54,17.42c12.91,3.79,13.07,17.86,13.07,17.86l1.32.32L215.87,37l-.05,1.69,1.24.21-1.54,3.5-.13,9.75.82.11.3,3.26-11.17-1.35-15.63,0-10.92,1.22.35-3.32.61,0-.08-10.92L178,38.67l1.7-.69-1.41-3.21,1.27-.08C180.78,20.27,193,17.36,193,17.36l-.42-.69,0-.9.49-.39V13.87l.57-.86.29-.11-.13-7.55-.42-.61,0-.85.56-.24,0-1,2.81-1.43.53-.69h1.54l.53.69,2.63,1.43,0,1,.51.24-.06.85-.42.61-.13,7.55.32.08.48.82v1.51l.48.42,0,.9-.51.79Z" transform="translate(0 4.31)"/><path d="M190,50.5a1.21,1.21,0,0,1-1.18,1.25l-7.71.66.41-11.06s-.06-1.11.61-1.3,6.25-1,7-1.07.69,1.09.69,1.09.24,9.16.15,10.43Zm-7.4-14.27c1.07-.29,4.16-.72,5.23-.87a1.59,1.59,0,0,1,1.74,1,2.81,2.81,0,0,1,.15,1.13h-.05l-8.16.87s0-1.83,1.09-2.14Zm12-22.39,1-.26c.55-.08.33,1.67.33,1.67l-1.66.22c-.1-1.56.32-1.63.32-1.63Zm.15-1.24.14-4.75c.41,0,.94.28.92,1.47l.06,3.34c-.06.38-.55.44-.55.44-.65.1-.57-.5-.57-.5Zm.18-6.23c0-1,.36-1.18.36-1.18.69-.56.57.43.57.43V7l-1,.39,0-1Zm2.39,7.09h1.85s.2,0,.19.45v1.31h-3v-.94s-.08-.75,1-.82Zm-5.37,21.46,11.35,0c.6.06,1.37.28,1.52,1a6.44,6.44,0,0,1,0,1.55h-14c0-.5,0-2.57,1.18-2.58Zm13.63,16.89-.47-11s-.33,9.57-.36,10.24a.66.66,0,0,1-.64.67l-13.46,0,.18-11.94s0-.89.74-.82c.46,0,13.85,0,13.85,0l9.43,1.27a.66.66,0,0,1,.52.49l0,.88,1-2.29-11-1.78c0-.51-.09-2.51,1.17-2.37l9.17,1.16.37-.39-1.15-.22a19.73,19.73,0,0,0-7.53-15.42,25,25,0,0,1,6.18,13.93c.07,1-.53,1.07-.53,1.07l-6.93-1.14c0-.85.38-10.94-6.22-16.36,0,0,4,4.54,4.6,14.74A1.23,1.23,0,0,1,203.22,34l-12.07,0c-.86-10.36,4.1-16.3,4.1-16.3-4.44,3.87-6,10.35-6.34,14.06-.07,2.51-1.52,2.58-1.52,2.58l-5.34.72c.9-13.08,9.83-16.69,11.91-17.43l1.53-.35.3,0s-1.35-.24-1.32-.89c0,0-.07-.58.63-.66a25.11,25.11,0,0,1,4.41-.2l2.26.51s.37,0,.32.52v.26l.2-.39V16l-.52-.35-2.22-.4V13.68s0-.23.29-.17l1.49.35a1.26,1.26,0,0,1,.71.66l.06-.45-.4-.71-2.52-.55h0V6.7l-2.1,0,0,.37a2,2,0,0,1,1.46,2.2l.08,3.54-2.24.05,0-8c0-.61,1-.73,1-.73h2c2.23.58,2,1,2,1l.52-.74V4.11l-2.64-.58c-2.86.13-3.13-.06-3.13-.06-.25-.1.3-.4.3-.4.55-.32.39-.42.39-.42a.65.65,0,0,1-.18-.32,2.3,2.3,0,0,1,2.16-.4c2.42.8,2.62,1.88,2.62,1.88l0-.91L199,1.52,198.6,1h-1.23l-.44.56-2.61,1.42,0,1-.58.2v.36l.47.64,0,8.15-.3.06-.38.66v1.61l-.48.33.09.63.72.93h-.1c-12.45,3.59-13.63,15.7-13.72,17.69l-.92.05,1.29,3.08-1.56.61,1.31,1.84.05,11.64-.72.05-.2,2.29,10.37-1.19h15.71l10.47,1.27-.2-2.14-10.13-.9ZM200.74,9.92l0,3.27.33.07V7.46L199.83,7V7.5s.9.26.9,2.42Z" transform="translate(0 4.31)"/><path class="cls-3" d="M211.54,42.74v7.53l2.5.22V43.05l-2.49-.31Zm-4.1,7.08,2.5.23V42.36L207.45,42v7.78Zm-8.81-.35h3.62V41.6h-3.59l0,7.87Zm-5.57,0h3.62V41.6h-3.59l0,7.87Zm-6.72.49,2.47-.28,0-7.7-2.48.36,0,7.62Zm-4,.44,2.46-.28,0-7.48-2.48.36v7.4Z" transform="translate(0 4.31)"/><path d="M211.54,42.75v1s2,.05,2.15,6.74l.34,0V43.07l-2.49-.32Zm-4.09.32s2,.41,2.15,6.94l.35,0V42.35L207.46,42v1Zm-8.8-.28s3-.46,3.18,6.68h.41V41.6h-3.59v1.19Zm-5.56,0s3-.07,3.17,6.66h.43V41.6H193.1v1.21Zm-6.73.71s2-.33,2.07,6.2l.39,0,0-7.7-2.48.36v1.18Zm-4,.47s2.06-.34,2.07,6.18l.39,0,0-7.48-2.48.36v1Z" transform="translate(0 4.31)"/><path class="cls-1" d="M322.43,52.76v.34h.21c.19,0,.44,0,.44-.16s-.15-.19-.31-.19h-.34Zm.84,1.18H323l-.35-.63h-.26v.63h-.2V52.57h.58c.25,0,.47.07.47.36a.35.35,0,0,1-.37.38l.36.63Zm-1.59-.7a1,1,0,1,0,1-1,1,1,0,0,0-1,1Zm-.2,0a1.23,1.23,0,1,1,1.23,1.22,1.21,1.21,0,0,1-1.23-1.22Z" transform="translate(0 4.31)"/><path class="cls-1" d="M135.79,13.94h-1.63v4.47h-.73V13.94h-1.67v-.68h4v.68Zm6.45,4.47h-.73V14.09h0l-1.7,4.32h-.48l-1.7-4.32h0v4.32h-.73V13.26H138l1.58,4,1.58-4h1.1v5.15Z" transform="translate(0 4.31)"/><path class="cls-1" d="M36.5,13V53.2H23.85L12.61,31.15Q11.77,29.5,10,25.38L8.72,22.5,7.48,19.61H7.19l.12,2.65.09,2.62.06,5.27V53.2H0V13H12.65L22.88,33.39Q24.23,36.11,26,40l1.5,3.27L29,46.51h.26l-.08-2.58-.09-2.59-.06-5.18V13Z" transform="translate(0 4.31)"/><path class="cls-1" d="M66.48,38.86H74v1.38q0,8.4-3,10.85T57.72,53.55q-11.64,0-14.32-3.89T40.72,28.88q0-10,3.63-13.09t15.19-3.13q8.42,0,11.24,2.57T73.6,25.46l0,.91H66.14v-1q0-3.94-1.46-5.05T58,19.19q-6.94,0-8.34,1.74t-1.4,10.3q0,11.54,1.26,13.66C50.39,46.31,53.1,47,57.67,47c3.71,0,6.11-.39,7.22-1.18s1.66-2.52,1.66-5.18Z" transform="translate(0 4.31)"/><path class="cls-1" d="M108.83,24.73h-7.29a7.85,7.85,0,0,1-.05-.83c-.17-2.25-.67-3.67-1.47-4.25s-2.71-.87-5.71-.87c-3.53,0-5.84.34-6.93,1S85.75,21.85,85.75,24c0,2.53.44,4.05,1.33,4.56s3.8.9,8.76,1.18q8.79.49,11.37,2.56t2.58,8.56q0,8-3,10.35T93.43,53.54q-9.29,0-12.32-2.29t-3-9.3l0-1.47H85.3l0,.86q0,4.2,1.44,5.15t7.87.94c3.34,0,5.48-.36,6.39-1.09s1.38-2.4,1.38-5c0-1.94-.35-3.24-1-3.87s-2.22-1-4.54-1.16L92.7,36q-9.33-.55-11.93-2.65C79,32,78.18,29,78.18,24.38s1-7.82,3.12-9.38,6.25-2.34,12.49-2.34q8.88,0,12,2.15t3.08,8.39Z" transform="translate(0 4.31)"/><path class="cls-1" d="M127.19,12.79v13h2.29v3h-2.29v4.36h-3.78V28.76H112.67V24.43l8.69-11.63h5.83Zm-3.78,13V15.71h-.12l-7.54,10.07Z" transform="translate(0 4.31)"/><line class="cls-4" x1="155.88" x2="155.88" y2="65.99"/></g></g></svg>