<?xml version="1.0" encoding="utf-8"?>
<!-- Generator: Adobe Illustrator 25.4.1, SVG Export Plug-In . SVG Version: 6.00 Build 0)  -->
<svg version="1.1" id="Layer_1" xmlns="http://www.w3.org/2000/svg" xmlns:xlink="http://www.w3.org/1999/xlink" x="0px" y="0px"
	 viewBox="0 0 323.9 65.9" style="enable-background:new 0 0 323.9 65.9;" xml:space="preserve">
<style type="text/css">
	.st0{fill:#FFFFFF;}
	.st1{fill:none;stroke:#FFFFFF;stroke-width:1.0357;}
	.st2{fill:#FFCE34;}
	.st3{fill:#010102;stroke:#FFFFFF;stroke-width:0.521;stroke-miterlimit:10;}
	.st4{fill:none;stroke:#FFCE34;stroke-width:1.1085;stroke-miterlimit:10;}
</style>
<g>
	<path class="st0" d="M228.9,37.3c-0.3-1-0.9-2.1-2.2-2.1c-0.9,0-1.5,0.7-1.5,1.5c0,0.9,0.6,1.4,1.9,2c1.6,0.8,2.8,1.7,2.8,3.2
		c0,1.8-1.5,3.2-3.8,3.2c-0.6,0-1.1-0.1-1.6-0.2c-0.4-0.1-0.7-0.2-1-0.4c-0.1-0.4-0.3-1.7-0.5-2.6l0.5-0.2c0.3,1,1.2,2.8,2.7,2.8
		c1,0,1.6-0.7,1.6-1.6c0-0.9-0.7-1.5-1.9-2.1c-1.6-0.8-2.7-1.6-2.7-3.1c0-1.7,1.4-3.1,3.6-3.1c1,0,1.9,0.3,2.2,0.4
		c0.1,0.6,0.2,1.3,0.3,2.2L228.9,37.3L228.9,37.3z"/>
	<path class="st0" d="M238.2,35.1c-1.6,0-2.8,1.7-2.8,4.4s1.2,4.9,3.2,4.9c1.5,0,2.7-1.5,2.7-4.3C241.3,37,240,35.1,238.2,35.1
		L238.2,35.1L238.2,35.1z M238.5,34.5c2.8,0,5.2,2.1,5.2,5.2c0,3.4-2.4,5.4-5.4,5.4c-3.1,0-5.3-2.3-5.3-5.3
		C233,37.1,234.9,34.5,238.5,34.5L238.5,34.5L238.5,34.5z"/>
	<path class="st0" d="M257.2,35.3c-0.9,0-1.2,0.4-1.3,0.9c-0.1,0.5-0.1,1.1-0.1,2.2v1.7c0,1.7-0.2,3-1.1,3.9
		c-0.7,0.8-1.8,1.1-2.9,1.1c-1,0-2-0.2-2.8-0.8c-0.9-0.7-1.3-1.8-1.3-3.7v-3.7c0-1.5-0.2-1.6-1.3-1.7v-0.5h4.7v0.5
		c-1.1,0.1-1.3,0.2-1.3,1.7v3.4c0,2.3,0.8,3.7,2.5,3.7c1.9,0,2.7-1.4,2.7-4v-1.7c0-1.1-0.1-1.7-0.2-2.2s-0.5-0.9-1.5-0.9v-0.5h3.9
		L257.2,35.3L257.2,35.3z"/>
	<path class="st0" d="M268.6,37.4c-0.2-0.8-0.4-1.3-0.7-1.6c-0.3-0.3-0.7-0.4-1.6-0.4h-0.7v7.4c0,1.3,0.2,1.4,1.5,1.5v0.5H262v-0.5
		c1.3-0.1,1.5-0.2,1.5-1.5v-7.4H263c-1.3,0-1.6,0.2-1.8,0.4c-0.2,0.3-0.5,0.8-0.7,1.6h-0.6c0.1-1.1,0.2-2.3,0.2-3.1h0.4
		c0.2,0.4,0.5,0.4,0.9,0.4h6.3c0.4,0,0.6-0.1,0.9-0.4h0.4c0,0.6,0.1,2,0.2,3L268.6,37.4L268.6,37.4z"/>
	<path class="st0" d="M283.5,35.3c-1.2,0.1-1.3,0.2-1.3,1.5v6c0,1.3,0.1,1.4,1.3,1.5v0.5h-4.8v-0.5c1.2-0.1,1.4-0.2,1.4-1.5v-2.9
		h-4.3v2.9c0,1.3,0.1,1.4,1.3,1.5v0.5h-4.6v-0.5c1.1-0.1,1.3-0.2,1.3-1.5v-6c0-1.3-0.1-1.4-1.3-1.5v-0.5h4.7v0.5
		c-1.1,0.1-1.2,0.2-1.2,1.5v2.3h4.3v-2.3c0-1.3-0.1-1.4-1.3-1.5v-0.5h4.7L283.5,35.3L283.5,35.3z"/>
	<path class="st0" d="M295.3,42.3c-0.1,0.7-0.4,2.1-0.5,2.6h-8v-0.5c1.3-0.1,1.5-0.2,1.5-1.5v-6c0-1.4-0.2-1.4-1.3-1.5v-0.5h7.4
		c0,0.3,0.1,1.4,0.2,2.3l-0.6,0.1c-0.1-0.5-0.4-1.1-0.6-1.3c-0.3-0.3-0.7-0.4-1.6-0.4H291c-0.6,0-0.6,0-0.6,0.5v3.3h1
		c1.3,0,1.5-0.1,1.7-1.2h0.6v3.2h-0.6c-0.2-1.1-0.4-1.2-1.7-1.2h-1v2.7c0,0.7,0.1,1.1,0.4,1.3c0.3,0.1,0.8,0.2,1.4,0.2
		c0.8,0,1.4-0.1,1.7-0.5c0.3-0.3,0.6-0.8,0.9-1.5L295.3,42.3L295.3,42.3z"/>
	<path class="st0" d="M302.2,39.9c0.7,0,1.2-0.1,1.5-0.4c0.5-0.4,0.8-1.1,0.8-1.9c0-1.7-1-2.3-1.8-2.3c-0.4,0-0.6,0.1-0.7,0.2
		c-0.1,0.1-0.1,0.2-0.1,0.6v3.8L302.2,39.9L302.2,39.9z M308.1,45c-0.1,0-0.3,0-0.5,0c-2-0.1-2.6-0.5-3.2-1.5
		c-0.4-0.6-0.8-1.5-1.3-2.3c-0.2-0.5-0.5-0.7-1-0.7h-0.3v2.3c0,1.3,0.1,1.4,1.3,1.5v0.5h-4.7v-0.5c1.2-0.1,1.3-0.3,1.3-1.5v-6
		c0-1.2-0.1-1.4-1.3-1.5v-0.5h4.4c1.4,0,2.1,0.2,2.8,0.6c0.6,0.4,1.1,1.1,1.1,2.1c0,1.4-0.9,2.1-2,2.5c0.2,0.5,0.8,1.5,1.3,2.2
		c0.6,0.9,0.9,1.4,1.2,1.7c0.4,0.4,0.6,0.5,1,0.7L308.1,45L308.1,45z"/>
	<path class="st0" d="M321.4,35.3c-0.9,0-1.2,0.2-1.2,1c0,0.5-0.1,1.2-0.1,2.6v6.2h-0.8l-6.5-7.8l0,0v3.5c0,1.4,0.1,2.1,0.1,2.5
		c0.1,0.7,0.4,1,1.5,1v0.5h-3.8v-0.5c0.9-0.1,1.2-0.3,1.3-1c0.1-0.5,0.2-1.2,0.2-2.6v-3.2c0-1,0-1.3-0.3-1.7s-0.6-0.5-1.3-0.6v-0.5
		h2.9l6,6.9h0.1v-2.8c0-1.4-0.1-2.1-0.1-2.6c-0.1-0.7-0.4-0.9-1.5-1v-0.5h3.8L321.4,35.3L321.4,35.3z"/>
	<path class="st0" d="M230.1,58.5V58c1.1-0.1,1.1-0.2,1.1-1.5V51h-0.1l-3.1,7.4h-0.4l-2.9-7.2l0,0l-0.2,3.7c-0.1,1.2-0.1,1.8,0,2.3
		c0.1,0.6,0.3,0.8,1.3,0.9v0.4h-3.4V58c0.8-0.1,1.1-0.3,1.1-0.8c0.1-0.5,0.2-1.2,0.3-2.7l0.2-2.8c0.1-1.6,0-1.8-1.2-1.9v-0.5h2.9
		l2.7,6.2l2.8-6.2h2.9v0.5c-1.1,0.1-1.2,0.2-1.2,1.4l0.1,5.3c0,1.3,0.1,1.4,1.2,1.5v0.5H230.1L230.1,58.5z"/>
	<path class="st0" d="M237.1,58.5V58c1-0.1,1.2-0.2,1.2-1.4v-5.4c0-1.2-0.1-1.3-1.2-1.4v-0.5h4.3v0.5c-1,0.1-1.2,0.2-1.2,1.4v5.4
		c0,1.2,0.1,1.3,1.2,1.4v0.5H237.1L237.1,58.5z"/>
	<path class="st0" d="M249.8,51.5c-0.3-0.9-0.8-1.9-2-1.9c-0.8,0-1.4,0.6-1.4,1.4c0,0.8,0.5,1.2,1.8,1.9c1.5,0.7,2.5,1.5,2.5,2.9
		c0,1.6-1.4,2.9-3.5,2.9c-0.5,0-1-0.1-1.4-0.2c-0.4-0.1-0.7-0.2-0.9-0.3c-0.1-0.4-0.3-1.5-0.4-2.4l0.5-0.1c0.3,0.9,1.1,2.5,2.5,2.5
		c0.9,0,1.4-0.6,1.4-1.5c0-0.8-0.6-1.4-1.7-1.9c-1.5-0.7-2.5-1.5-2.5-2.9c0-1.6,1.2-2.8,3.2-2.8c0.9,0,1.7,0.3,2,0.4
		c0.1,0.5,0.1,1.1,0.3,2L249.8,51.5L249.8,51.5z"/>
	<path class="st0" d="M259,51.5c-0.3-0.9-0.8-1.9-2-1.9c-0.8,0-1.4,0.6-1.4,1.4c0,0.8,0.5,1.2,1.8,1.9c1.5,0.7,2.5,1.5,2.5,2.9
		c0,1.6-1.4,2.9-3.5,2.9c-0.5,0-1-0.1-1.4-0.2c-0.4-0.1-0.7-0.2-0.9-0.3c-0.1-0.4-0.3-1.5-0.4-2.4l0.5-0.1c0.3,0.9,1.1,2.5,2.5,2.5
		c0.9,0,1.4-0.6,1.4-1.5c0-0.8-0.6-1.4-1.7-1.9c-1.5-0.7-2.5-1.5-2.5-2.9c0-1.6,1.2-2.8,3.2-2.8c0.9,0,1.7,0.3,2,0.4
		c0.1,0.5,0.2,1.1,0.3,2L259,51.5L259,51.5z"/>
	<path class="st0" d="M262.8,58.5V58c1-0.1,1.2-0.2,1.2-1.4v-5.4c0-1.2-0.1-1.3-1.2-1.4v-0.5h4.3v0.5c-1,0.1-1.2,0.2-1.2,1.4v5.4
		c0,1.2,0.1,1.3,1.2,1.4v0.5H262.8L262.8,58.5z"/>
	<path class="st0" d="M275.5,51.5c-0.3-0.9-0.8-1.9-2-1.9c-0.8,0-1.4,0.6-1.4,1.4c0,0.8,0.5,1.2,1.8,1.9c1.5,0.7,2.5,1.5,2.5,2.9
		c0,1.6-1.4,2.9-3.5,2.9c-0.5,0-1-0.1-1.4-0.2c-0.4-0.1-0.7-0.2-0.9-0.3c-0.1-0.4-0.3-1.5-0.4-2.4l0.5-0.1c0.3,0.9,1.1,2.5,2.5,2.5
		c0.9,0,1.4-0.6,1.4-1.5c0-0.8-0.6-1.4-1.7-1.9c-1.5-0.7-2.5-1.5-2.5-2.9c0-1.6,1.2-2.8,3.2-2.8c0.9,0,1.7,0.3,2,0.4
		c0.1,0.5,0.1,1.1,0.3,2L275.5,51.5L275.5,51.5z"/>
	<path class="st0" d="M284.7,51.5c-0.3-0.9-0.8-1.9-2-1.9c-0.8,0-1.4,0.6-1.4,1.4c0,0.8,0.5,1.2,1.8,1.9c1.5,0.7,2.5,1.5,2.5,2.9
		c0,1.6-1.4,2.9-3.4,2.9c-0.5,0-1-0.1-1.4-0.2c-0.4-0.1-0.7-0.2-0.9-0.3c-0.1-0.4-0.3-1.5-0.4-2.4l0.5-0.1c0.3,0.9,1.1,2.5,2.5,2.5
		c0.9,0,1.4-0.6,1.4-1.5c0-0.8-0.6-1.4-1.7-1.9c-1.5-0.7-2.5-1.5-2.5-2.9c0-1.6,1.2-2.8,3.2-2.8c0.9,0,1.7,0.3,2,0.4
		c0.1,0.5,0.2,1.1,0.3,2L284.7,51.5L284.7,51.5z"/>
	<path class="st0" d="M288.5,58.5V58c1-0.1,1.2-0.2,1.2-1.4v-5.4c0-1.2-0.1-1.3-1.2-1.4v-0.5h4.3v0.5c-1,0.1-1.2,0.2-1.2,1.4v5.4
		c0,1.2,0.1,1.3,1.2,1.4v0.5H288.5L288.5,58.5z"/>
	<path class="st0" d="M299,54.1c0.2,0.1,0.5,0.1,0.8,0.1c0.5,0,1.7-0.4,1.7-2.3c0-1.6-0.9-2.1-1.8-2.1c-0.3,0-0.4,0.1-0.5,0.1
		c-0.1,0.1-0.1,0.2-0.1,0.4v3.8H299z M299.9,49.2c1.1,0,1.9,0.2,2.5,0.5c0.7,0.5,1,1.2,1,2.1c0,1.9-1.4,2.8-2.9,3
		c-0.2,0-0.4,0-0.6,0l-1-0.2v1.9c0,1.2,0.1,1.3,1.4,1.4v0.6h-4.4V58c1.1-0.1,1.2-0.2,1.2-1.4v-5.4c0-1.2-0.1-1.3-1.1-1.4v-0.5
		L299.9,49.2L299.9,49.2z"/>
	<path class="st0" d="M309.3,54.1c0.2,0.1,0.5,0.1,0.8,0.1c0.5,0,1.7-0.4,1.7-2.3c0-1.6-0.9-2.1-1.8-2.1c-0.3,0-0.4,0.1-0.5,0.1
		c-0.1,0.1-0.1,0.2-0.1,0.4v3.8H309.3z M310.2,49.2c1.1,0,1.9,0.2,2.5,0.5c0.7,0.5,1,1.2,1,2.1c0,1.9-1.4,2.8-2.9,3
		c-0.2,0-0.4,0-0.6,0l-1-0.2v1.9c0,1.2,0.1,1.3,1.4,1.4v0.6h-4.4V58c1.1-0.1,1.2-0.2,1.2-1.4v-5.4c0-1.2-0.1-1.3-1.1-1.4v-0.5
		L310.2,49.2L310.2,49.2z"/>
	<path class="st0" d="M316.5,58.5V58c1-0.1,1.2-0.2,1.2-1.4v-5.4c0-1.2-0.1-1.3-1.2-1.4v-0.5h4.3v0.5c-1,0.1-1.2,0.2-1.2,1.4v5.4
		c0,1.2,0.1,1.3,1.2,1.4v0.5H316.5L316.5,58.5z"/>
	<path class="st0" d="M227.2,27.3c-0.1-0.4-0.2-0.6-0.3-0.7s-0.3-0.2-0.7-0.2h-0.4v3c0,0.7,0.1,0.7,0.7,0.8v0.3h-2.4v-0.3
		c0.6,0,0.7-0.1,0.7-0.8v-3h-0.2c-0.5,0-0.6,0.1-0.8,0.2c-0.1,0.1-0.2,0.3-0.3,0.7h-0.3c0-0.6,0.1-1.1,0.1-1.4h0.2
		c0.1,0.1,0.2,0.2,0.4,0.2h2.9c0.2,0,0.3,0,0.4-0.2h0.2c0,0.3,0,1,0.1,1.4H227.2L227.2,27.3z"/>
	<path class="st0" d="M232.6,30.4v-0.3c0.5,0,0.6-0.1,0.6-0.8v-1h-1.9v1c0,0.6,0,0.7,0.5,0.8v0.3h-2.2v-0.3c0.6,0,0.6-0.1,0.6-0.8
		V27c0-0.7-0.1-0.7-0.7-0.8v-0.3h2.3v0.3c-0.5,0.1-0.6,0.1-0.6,0.8v0.8h1.9V27c0-0.7-0.1-0.7-0.6-0.8v-0.3h2.2v0.3
		c-0.6,0.1-0.6,0.1-0.6,0.8v2.3c0,0.7,0.1,0.7,0.6,0.8v0.3H232.6L232.6,30.4z"/>
	<path class="st0" d="M241,29.2c0,0.3-0.2,1-0.2,1.2H237v-0.3c0.6,0,0.7-0.1,0.7-0.8V27c0-0.7,0-0.7-0.6-0.7V26h3.6
		c0,0.2,0,0.6,0.1,1.1h-0.3c-0.1-0.3-0.2-0.4-0.3-0.5s-0.3-0.2-0.8-0.2H239c-0.3,0-0.3,0-0.3,0.3V28h0.6c0.5,0,0.6-0.1,0.7-0.5h0.3
		v1.4H240c-0.1-0.4-0.1-0.5-0.7-0.5h-0.6v1c0,0.4,0,0.6,0.2,0.6c0.1,0.1,0.3,0.1,0.7,0.1s0.6,0,0.8-0.2c0.1-0.1,0.2-0.3,0.4-0.6
		L241,29.2L241,29.2z"/>
	<path class="st0" d="M251.4,26.3c-0.4,0-0.6,0.1-0.6,0.4c0,0.2,0,0.5,0,1.1v0.5c0,0.7-0.1,1.3-0.5,1.7c-0.3,0.3-0.8,0.5-1.3,0.5
		s-0.9-0.1-1.3-0.4c-0.4-0.3-0.6-0.8-0.6-1.6V27c0-0.6,0-0.7-0.6-0.7V26h2.3v0.3c-0.6,0.1-0.6,0.1-0.6,0.7v1.3
		c0,1.1,0.4,1.6,1.1,1.6c0.8,0,1.1-0.6,1.1-1.7v-0.5c0-0.7,0-0.9,0-1.1c0-0.3-0.2-0.4-0.7-0.4v-0.3h1.9L251.4,26.3L251.4,26.3z"/>
	<path class="st0" d="M258.3,26.3c-0.4,0-0.6,0.1-0.6,0.4s-0.1,0.6-0.1,1.2v2.5h-0.5l-2.8-3.3l0,0v1.4c0,0.6,0,1,0,1.2
		c0,0.3,0.2,0.4,0.7,0.4v0.3h-1.9v-0.3c0.4,0,0.6-0.1,0.6-0.4c0-0.2,0.1-0.5,0.1-1.2v-1.2c0-0.8-0.2-0.9-0.8-1V26h1.5l2.5,2.8l0,0
		v-1c0-0.6,0-0.9-0.1-1.2c0-0.3-0.2-0.4-0.7-0.4v-0.3h1.9L258.3,26.3L258.3,26.3z"/>
	<path class="st0" d="M260.2,30.4v-0.3c0.6,0,0.6-0.1,0.6-0.7v-2.3c0-0.6-0.1-0.7-0.6-0.7v-0.3h2.3v0.3c-0.6,0-0.6,0.1-0.6,0.7v2.3
		c0,0.6,0.1,0.7,0.6,0.7v0.3H260.2L260.2,30.4z"/>
	<path class="st0" d="M269.6,26.3c-0.5,0.1-0.6,0.2-0.9,0.7c-0.3,0.6-0.9,2.1-1.5,3.5h-0.4c-0.5-1.2-1.1-2.5-1.5-3.6
		c-0.2-0.5-0.4-0.5-0.8-0.6V26h2.2v0.3h-0.2c-0.2,0-0.3,0.1-0.2,0.5c0.3,0.6,0.6,1.5,1,2.4c0.3-0.6,0.8-1.9,0.9-2.3s0.1-0.5-0.2-0.5
		h-0.2v-0.3h1.7L269.6,26.3L269.6,26.3z"/>
	<path class="st0" d="M275.6,29.2c0,0.3-0.2,1-0.2,1.2h-3.8v-0.3c0.6,0,0.7-0.1,0.7-0.8V27c0-0.7-0.1-0.7-0.6-0.7V26h3.6
		c0,0.2,0,0.6,0.1,1.1h-0.3c-0.1-0.3-0.2-0.4-0.3-0.5c-0.1-0.1-0.3-0.2-0.8-0.2h-0.4c-0.3,0-0.3,0-0.3,0.3V28h0.6
		c0.5,0,0.6-0.1,0.7-0.5h0.3v1.4h-0.3c-0.1-0.4-0.1-0.5-0.7-0.5h-0.6v1c0,0.4,0,0.6,0.2,0.6c0.1,0.1,0.3,0.1,0.7,0.1
		c0.4,0,0.6,0,0.8-0.2c0.1-0.1,0.2-0.3,0.4-0.6L275.6,29.2L275.6,29.2z"/>
	<path class="st0" d="M279.5,28.2c0.3,0,0.5,0,0.7-0.2c0.2-0.1,0.3-0.4,0.3-0.8c0-0.7-0.4-0.9-0.9-0.9c-0.3,0-0.4,0.1-0.4,0.3v1.5
		L279.5,28.2L279.5,28.2z M282.3,30.5H282c-0.9,0-1.2-0.2-1.5-0.6c-0.2-0.3-0.4-0.7-0.6-1c-0.1-0.2-0.2-0.3-0.5-0.3h-0.1v0.8
		c0,0.6,0.1,0.7,0.6,0.7v0.3h-2.3v-0.3c0.6,0,0.6-0.1,0.6-0.7V27c0-0.6,0-0.7-0.6-0.7V26h2.3c0.5,0,0.9,0,1.2,0.2
		c0.3,0.2,0.5,0.5,0.5,0.9c0,0.6-0.4,0.9-0.9,1.1c0.1,0.2,0.4,0.7,0.6,1s0.4,0.5,0.5,0.7c0.1,0.1,0.3,0.2,0.5,0.3V30.5L282.3,30.5z"
		/>
	<path class="st0" d="M287,27.3c-0.2-0.6-0.5-1-1.1-1c-0.4,0-0.7,0.3-0.7,0.6c0,0.4,0.4,0.6,0.7,0.7l0.2,0.1
		c0.7,0.3,1.3,0.6,1.3,1.4c0,0.9-0.7,1.4-1.8,1.4c-0.6,0-1.1-0.2-1.3-0.3c-0.1-0.2-0.2-0.7-0.2-1.2l0.3-0.1c0.2,0.5,0.7,1.3,1.3,1.3
		c0.5,0,0.7-0.3,0.7-0.7s-0.3-0.6-0.7-0.8l-0.3-0.1c-0.5-0.2-1.2-0.6-1.2-1.3c0-0.8,0.6-1.4,1.7-1.4c0.5,0,0.9,0.1,1,0.2
		c0,0.3,0.1,0.6,0.2,1.1L287,27.3L287,27.3z"/>
	<path class="st0" d="M289.6,30.4v-0.3c0.6,0,0.6-0.1,0.6-0.7v-2.3c0-0.6-0.1-0.7-0.6-0.7v-0.3h2.3v0.3c-0.6,0-0.6,0.1-0.6,0.7v2.3
		c0,0.6,0,0.7,0.6,0.7v0.3H289.6L289.6,30.4z"/>
	<path class="st0" d="M298,27.3c-0.1-0.4-0.2-0.6-0.3-0.7c-0.1-0.1-0.3-0.2-0.7-0.2h-0.4v3c0,0.7,0.1,0.7,0.7,0.8v0.3h-2.4v-0.3
		c0.6,0,0.7-0.1,0.7-0.8v-3h-0.2c-0.5,0-0.6,0.1-0.8,0.2c-0.1,0.1-0.2,0.3-0.3,0.7H294c0-0.6,0.1-1.1,0.1-1.4h0.2
		c0.1,0.1,0.2,0.2,0.4,0.2h2.9c0.2,0,0.3,0,0.4-0.2h0.2c0,0.3,0,1,0.1,1.4H298L298,27.3z"/>
	<path class="st0" d="M304.9,26.3c-0.5,0-0.6,0.1-0.9,0.5c-0.2,0.3-0.4,0.7-0.8,1.4c-0.1,0.2-0.1,0.2-0.1,0.4v0.8
		c0,0.6,0.1,0.7,0.7,0.7v0.3h-2.5v-0.3C302,30,302,30,302,29.4v-0.7c0-0.2,0-0.3-0.1-0.5c-0.2-0.4-0.5-0.8-0.8-1.4
		c-0.2-0.4-0.4-0.5-0.8-0.5V26h2.1v0.3h-0.3c-0.2,0-0.2,0.1-0.1,0.3c0.3,0.5,0.5,1,0.8,1.4c0.3-0.5,0.5-1,0.7-1.3
		c0.1-0.3,0.1-0.4-0.1-0.4h-0.2V26h1.7L304.9,26.3L304.9,26.3z"/>
	<path class="st0" d="M312.6,26.3c-0.6,0-1.2,0.6-1.2,1.9c0,1.2,0.6,2.1,1.3,2.1c0.6,0,1.2-0.5,1.2-1.8
		C313.9,27.3,313.5,26.3,312.6,26.3L312.6,26.3L312.6,26.3z M312.7,25.9c1.5,0,2.4,1,2.4,2.2c0,1.5-1.2,2.4-2.4,2.4
		c-1.6,0-2.4-1.1-2.4-2.2C310.3,26.7,311.6,25.9,312.7,25.9L312.7,25.9L312.7,25.9z"/>
	<path class="st0" d="M320.6,27.2c-0.1-0.3-0.1-0.4-0.2-0.6c-0.1-0.1-0.3-0.2-0.8-0.2h-0.5c-0.2,0-0.2,0-0.2,0.3v1.4h0.6
		c0.6,0,0.7,0,0.8-0.5h0.3v1.5h-0.3c-0.1-0.5-0.1-0.6-0.8-0.6h-0.6v0.9c0,0.6,0.1,0.7,0.7,0.7v0.3h-2.4v-0.3c0.6,0,0.6-0.1,0.6-0.7
		V27c0-0.6-0.1-0.7-0.6-0.7V26h3.6c0,0.2,0,0.6,0.1,1.1L320.6,27.2L320.6,27.2z"/>
	<path class="st0" d="M202.5,21.7c13,3.8,13.1,17.8,13.1,17.8l1.3,0.3l-1.1,1.4v1.7l1.2,0.2l-1.5,3.5l-0.1,9.8l0.8,0.1l0.3,3.3
		l-11.2-1.4h-15.6l-10.9,1.2l0.4-3.3h0.6l-0.1-10.9l-1.6-2.4l1.7-0.7l-1.4-3.2l1.3-0.1c1.2-14.4,13.4-17.3,13.4-17.3l-0.4-0.7v-0.9
		l0.5-0.4v-1.5l0.6-0.9l0.3-0.1L194,9.7l-0.4-0.6V8.2l0.6-0.2V7l2.8-1.4l0.5-0.7h1.5l0.5,0.7l2.6,1.4v1l0.5,0.2l-0.1,0.9l-0.4,0.6
		l-0.1,7.5l0.3,0.1l0.5,0.8v1.5l0.5,0.4v0.9L202.5,21.7L202.5,21.7z"/>
	<path class="st1" d="M202.5,21.7c13,3.8,13.1,17.8,13.1,17.8l1.3,0.3l-1.1,1.4v1.7l1.2,0.2l-1.5,3.5l-0.1,9.8l0.8,0.1l0.3,3.3
		l-11.2-1.4h-15.6l-10.9,1.2l0.4-3.3h0.6l-0.1-10.9l-1.6-2.4l1.7-0.7l-1.4-3.2l1.3-0.1c1.2-14.4,13.4-17.3,13.4-17.3l-0.4-0.7v-0.9
		l0.5-0.4v-1.5l0.6-0.9l0.3-0.1L194,9.7l-0.4-0.6V8.2l0.6-0.2V7l2.8-1.4l0.5-0.7h1.5l0.5,0.7l2.6,1.4v1l0.5,0.2l-0.1,0.9l-0.4,0.6
		l-0.1,7.5l0.3,0.1l0.5,0.8v1.5l0.5,0.4v0.9L202.5,21.7L202.5,21.7z"/>
	<path d="M190,54.8c-0.1,1.3-1.2,1.2-1.2,1.2l-7.7,0.7l0.4-11.1c0,0-0.1-1.1,0.6-1.3c0.7-0.2,6.2-1,7-1.1s0.7,1.1,0.7,1.1
		S190.1,53.5,190,54.8L190,54.8z M182.6,40.5c1.1-0.3,4.2-0.7,5.2-0.9c0.1,0,1.4-0.1,1.7,1c0,0,0.2,0.5,0.1,1.1l0,0l-8.2,0.9
		C181.5,42.6,181.5,40.8,182.6,40.5L182.6,40.5z M194.6,18.1l1-0.3c0.5-0.1,0.3,1.7,0.3,1.7l-1.7,0.2
		C194.1,18.2,194.6,18.1,194.6,18.1L194.6,18.1z M194.7,16.9l0.1-4.8c0.4,0,0.9,0.3,0.9,1.5l0.1,3.3c-0.1,0.4-0.5,0.4-0.5,0.4
		C194.6,17.5,194.7,16.9,194.7,16.9L194.7,16.9z M194.9,10.6c0-1,0.4-1.2,0.4-1.2c0.7-0.6,0.6,0.4,0.6,0.4v1.3l-1,0.4V10.6
		L194.9,10.6z M197.3,17.7h1.9c0,0,0.2,0,0.2,0.5v1.3h-3v-1C196.3,18.5,196.2,17.8,197.3,17.7L197.3,17.7z M191.9,39.2h11.4
		c0.6,0.1,1.4,0.3,1.5,1c0,0,0.1,0.2,0,1.5h-14C190.7,41.3,190.7,39.2,191.9,39.2L191.9,39.2z M205.6,56.1l-0.5-11
		c0,0-0.3,9.6-0.4,10.2c0,0.7-0.6,0.7-0.6,0.7h-13.5l0.2-11.9c0,0,0-0.9,0.7-0.8c0.5,0,13.9,0,13.9,0s9,1.2,9.4,1.3s0.5,0.5,0.5,0.5
		V46l1-2.3l-11-1.8c0-0.5-0.1-2.5,1.2-2.4l9.2,1.2l0.4-0.4l-1.1-0.2c-0.1-10.3-7.5-15.4-7.5-15.4c5,5.9,6,11.5,6.2,13.9
		c0.1,1-0.5,1.1-0.5,1.1l-6.9-1.1c0-0.9,0.4-10.9-6.2-16.4c0,0,4,4.5,4.6,14.7c0.2,1.6-1.3,1.5-1.3,1.5h-12.1
		c-0.9-10.4,4.1-16.3,4.1-16.3c-4.4,3.9-6,10.4-6.3,14.1c-0.1,2.5-1.5,2.6-1.5,2.6l-5.3,0.7c0.9-13.1,9.8-16.7,11.9-17.4l1.5-0.4
		h0.3c0,0-1.4-0.2-1.3-0.9c0,0-0.1-0.6,0.6-0.7c0,0,2.3-0.3,4.4-0.2l2.3,0.5c0,0,0.4,0,0.3,0.5v0.3l0.2-0.4v-0.5l-0.5-0.4l-2.4-0.4
		V18c0,0,0-0.2,0.3-0.2l1.5,0.4c0,0,0.6,0.2,0.7,0.7l0.1-0.5l-0.4-0.7l-2.5-0.5l0,0v-6.1h-2.1v0.4c0,0,1.5,0.2,1.5,2.2l0.1,3.5h-2.2
		v-8c0-0.6,1-0.7,1-0.7h2c2.2,0.6,2,1,2,1l0.5-0.7V8.4l-2.6-0.6c-2.9,0.1-3.1-0.1-3.1-0.1c-0.2-0.1,0.3-0.4,0.3-0.4
		c0.5-0.3,0.4-0.4,0.4-0.4c-0.1-0.1-0.2-0.3-0.2-0.3c0.8-0.8,2.2-0.4,2.2-0.4c2.4,0.8,2.6,1.9,2.6,1.9V7.2l-2.4-1.4l-0.7-0.6h-1.2
		L197,5.8l-2.6,1.4v1l-0.6,0.2v0.4l0.5,0.6v8.1l-0.3,0.1l-0.4,0.7v1.6l-0.5,0.3l0.1,0.6l0.7,0.9h-0.1c-12.5,3.7-13.6,15.8-13.7,17.8
		h-0.9l1.3,3.1l-1.6,0.6l1.3,1.8v11.6h-0.7l-0.2,2.3l10.4-1.2h15.7l10.5,1.3l-0.2-2.1L205.6,56.1L205.6,56.1z M200.7,14.2v3.3
		l0.3,0.1v-5.8l-1.3-0.5v0.5C199.8,11.7,200.7,12,200.7,14.2L200.7,14.2z"/>
	<path class="st2" d="M211.5,47v7.5l2.5,0.2v-7.4L211.5,47L211.5,47z M207.4,54.1l2.5,0.2v-7.7l-2.5-0.3V54.1L207.4,54.1z
		 M198.6,53.7h3.6v-7.9h-3.6V53.7L198.6,53.7z M193.1,53.7h3.6v-7.9h-3.6V53.7L193.1,53.7z M186.3,54.2l2.5-0.3v-7.7l-2.5,0.4V54.2
		L186.3,54.2z M182.4,54.7l2.5-0.3v-7.5l-2.5,0.4V54.7L182.4,54.7z"/>
	<path d="M211.5,47v1c0,0,2,0,2.1,6.7h0.3v-7.4L211.5,47L211.5,47z M207.5,47.3c0,0,2,0.4,2.1,6.9h0.4v-7.7l-2.5-0.3V47.3
		L207.5,47.3z M198.6,47c0,0,3-0.5,3.2,6.7h0.4v-7.9h-3.6V47L198.6,47z M193.1,47.1c0,0,3-0.1,3.2,6.7h0.4v-7.9h-3.6L193.1,47.1
		L193.1,47.1z M186.4,47.8c0,0,2-0.3,2.1,6.2h0.4v-7.7l-2.5,0.4V47.8L186.4,47.8z M182.4,48.3c0,0,2.1-0.3,2.1,6.2h0.4V47l-2.5,0.4
		V48.3L182.4,48.3z"/>
	<path class="st0" d="M322.4,57v0.3h0.2c0.2,0,0.4,0,0.4-0.2s-0.1-0.2-0.3-0.2L322.4,57L322.4,57z M323.3,58.2h-0.2l-0.4-0.6h-0.3
		v0.6h-0.2v-1.4h0.6c0.2,0,0.5,0.1,0.5,0.4c0,0.3-0.2,0.4-0.4,0.4L323.3,58.2L323.3,58.2z M321.7,57.5c0,0.6,0.5,1,1,1s1-0.5,1-1
		c0-0.6-0.5-1-1-1C322.1,56.5,321.7,56.9,321.7,57.5L321.7,57.5z M321.5,57.5c0-0.7,0.5-1.2,1.2-1.2s1.2,0.5,1.2,1.2
		s-0.5,1.2-1.2,1.2S321.5,58.2,321.5,57.5L321.5,57.5z"/>
</g>
<path class="st3" d="M-159-69.3"/>
<g>
	<g>
		<path class="st0" d="M135.8,18.2h-1.6v4.5h-0.7v-4.5h-1.7v-0.7h4V18.2L135.8,18.2z M142.2,22.7h-0.7v-4.3l0,0l-1.7,4.3h-0.5
			l-1.7-4.3l0,0v4.3h-0.7v-5.2h1.1l1.6,4l1.6-4h1.1L142.2,22.7L142.2,22.7z"/>
	</g>
	<path class="st0" d="M36.5,17.3v40.2H23.8L12.6,35.4c-0.6-1.1-1.4-3-2.6-5.8l-1.3-2.9l-1.2-2.9H7.2l0.1,2.7l0.1,2.6l0.1,5.3v23H0
		V17.3h12.6l10.2,20.4c0.9,1.8,1.9,4,3.1,6.6l1.5,3.3l1.5,3.3h0.3l-0.1-2.6L29,45.7l-0.1-5.2V17.3H36.5L36.5,17.3z"/>
	<path class="st0" d="M66.5,43.1H74v1.4c0,5.6-1,9.2-3,10.9s-6.4,2.5-13.2,2.5c-7.8,0-12.5-1.3-14.3-3.9c-1.8-2.6-2.7-9.5-2.7-20.8
		c0-6.6,1.2-11,3.6-13.1S51.9,17,59.6,17c5.6,0,9.4,0.9,11.2,2.6c1.9,1.7,2.8,5.1,2.8,10.2v0.9h-7.5v-1c0-2.6-0.5-4.3-1.5-5
		s-3.2-1.1-6.6-1.1c-4.6,0-7.4,0.6-8.3,1.7s-1.4,4.6-1.4,10.3c0,7.7,0.4,12.2,1.3,13.7c0.8,1.4,3.5,2.1,8.1,2.1
		c3.7,0,6.1-0.4,7.2-1.2s1.7-2.5,1.7-5.2L66.5,43.1z"/>
	<path class="st0" d="M108.8,29h-7.3c0-0.4-0.1-0.6-0.1-0.8c-0.2-2.2-0.7-3.7-1.5-4.2c-0.8-0.6-2.7-0.9-5.7-0.9
		c-3.5,0-5.8,0.3-6.9,1s-1.6,2.1-1.6,4.2c0,2.5,0.4,4,1.3,4.6s3.8,0.9,8.8,1.2c5.9,0.3,9.6,1.2,11.4,2.6c1.7,1.4,2.6,4.2,2.6,8.6
		c0,5.3-1,8.8-3,10.4c-2,1.6-6.5,2.3-13.3,2.3c-6.2,0-10.3-0.8-12.3-2.3s-3-4.6-3-9.3v-1.5h7.3v0.9c0,2.8,0.5,4.5,1.4,5.1
		s3.6,0.9,7.9,0.9c3.3,0,5.5-0.4,6.4-1.1c0.9-0.7,1.4-2.4,1.4-5c0-1.9-0.4-3.2-1.1-3.9c-0.7-0.6-2.2-1-4.5-1.2l-4.1-0.3
		C86.7,39.9,82.7,39,81,37.7c-1.7-1.4-2.6-4.4-2.6-9c0-4.7,1-7.8,3.1-9.4S87.7,17,94,17c5.9,0,9.9,0.7,12,2.1s3.1,4.2,3.1,8.4V29
		H108.8z"/>
	<path class="st0" d="M127.2,17v13h2.3v3h-2.3v4.4h-3.8V33h-10.7v-4.3l8.7-11.6L127.2,17L127.2,17z M123.4,30V20h-0.1l-7.5,10.1h7.6
		V30z"/>
</g>
<line class="st4" x1="155.9" y1="0" x2="155.9" y2="65.9"/>
</svg>
