<?xml version="1.0" encoding="utf-8"?>
<!-- Generator: Adobe Illustrator 25.4.1, SVG Export Plug-In . SVG Version: 6.00 Build 0)  -->
<svg version="1.1" id="Layer_1" xmlns="http://www.w3.org/2000/svg" xmlns:xlink="http://www.w3.org/1999/xlink" x="0px" y="0px"
	 viewBox="0 0 324.33 65.99" style="enable-background:new 0 0 324.33 65.99;" xml:space="preserve">
<style type="text/css">
	.st0{fill:#FFFFFF;}
	.st1{fill:none;stroke:#FFFFFF;stroke-width:1.0341;}
	.st2{fill:#FFCE34;}
	.st3{fill:#010102;stroke:#FFFFFF;stroke-width:0.521;stroke-miterlimit:10;}
	.st4{fill:none;stroke:#FFCE34;stroke-width:1.1085;stroke-miterlimit:10;}
</style>
<g>
	<path class="st0" d="M203.12,21.85c12.89,3.78,13.04,17.83,13.04,17.83l1.32,0.32l-1.06,1.35l-0.05,1.69l1.24,0.21l-1.53,3.49
		l-0.13,9.74l0.82,0.11l0.3,3.25l-11.15-1.35l-15.61,0.03l-10.9,1.22l0.34-3.31l0.61-0.02l-0.08-10.9l-1.64-2.43l1.7-0.69l-1.4-3.2
		l1.27-0.08c1.19-14.4,13.39-17.31,13.39-17.31l-0.42-0.69l-0.03-0.9l0.49-0.38v-1.51l0.57-0.86l0.29-0.11l-0.13-7.54l-0.42-0.61
		l-0.05-0.85l0.56-0.24l0.03-1l2.81-1.43l0.53-0.69h1.54l0.52,0.69l2.62,1.43l-0.03,1l0.51,0.24l-0.05,0.85l-0.42,0.61l-0.13,7.54
		l0.32,0.08l0.48,0.82v1.51l0.48,0.42l-0.03,0.9L203.12,21.85L203.12,21.85z"/>
	<path class="st1" d="M203.12,21.85c12.89,3.78,13.04,17.83,13.04,17.83l1.32,0.32l-1.06,1.35l-0.05,1.69l1.24,0.21l-1.53,3.49
		l-0.13,9.74l0.82,0.11l0.3,3.25l-11.15-1.35l-15.61,0.03l-10.9,1.22l0.34-3.31l0.61-0.02l-0.08-10.9l-1.64-2.43l1.7-0.69l-1.4-3.2
		l1.27-0.08c1.19-14.4,13.39-17.31,13.39-17.31l-0.42-0.69l-0.03-0.9l0.49-0.38v-1.51l0.57-0.86l0.29-0.11l-0.13-7.54l-0.42-0.61
		l-0.05-0.85l0.56-0.24l0.03-1l2.81-1.43l0.53-0.69h1.54l0.52,0.69l2.62,1.43l-0.03,1l0.51,0.24l-0.05,0.85l-0.42,0.61l-0.13,7.54
		l0.32,0.08l0.48,0.82v1.51l0.48,0.42l-0.03,0.9L203.12,21.85L203.12,21.85z"/>
	<path d="M190.6,54.88c-0.09,1.27-1.18,1.25-1.18,1.25l-7.69,0.66l0.41-11.04c0,0-0.06-1.11,0.61-1.3c0.67-0.19,6.24-1,7.02-1.07
		c0.78-0.07,0.69,1.09,0.69,1.09S190.69,53.6,190.6,54.88L190.6,54.88z M183.21,40.62c1.07-0.29,4.15-0.72,5.22-0.87
		c0.12-0.02,1.36-0.13,1.74,1.01c0,0,0.2,0.51,0.15,1.12h-0.05l-8.15,0.86C182.12,42.75,182.07,40.93,183.21,40.62L183.21,40.62z
		 M195.17,18.27l1.01-0.26c0.55-0.08,0.33,1.67,0.33,1.67l-1.65,0.22C194.75,18.34,195.17,18.27,195.17,18.27L195.17,18.27z
		 M195.31,17.03l0.14-4.74c0.41,0.02,0.94,0.28,0.92,1.47l0.06,3.34c-0.06,0.38-0.55,0.44-0.55,0.44
		C195.23,17.63,195.31,17.03,195.31,17.03L195.31,17.03z M195.5,10.81c0-1.02,0.36-1.18,0.36-1.18c0.69-0.56,0.57,0.43,0.57,0.43
		l0.01,1.33l-0.97,0.38L195.5,10.81L195.5,10.81z M197.88,17.89l1.84,0c0,0,0.2-0.03,0.19,0.45l-0.01,1.31h-3.04v-0.94
		C196.86,18.71,196.78,17.97,197.88,17.89L197.88,17.89z M192.52,39.32l11.33,0.01c0.6,0.06,1.37,0.28,1.52,1.01
		c0,0,0.07,0.24-0.03,1.55h-14C191.33,41.4,191.34,39.33,192.52,39.32L192.52,39.32z M206.13,56.18l-0.47-10.97
		c0,0-0.32,9.56-0.36,10.22c-0.04,0.67-0.63,0.67-0.63,0.67l-13.44-0.04l0.18-11.92c0,0-0.04-0.88,0.74-0.81
		c0.46,0.04,13.83,0,13.83,0s8.99,1.21,9.42,1.27c0.43,0.07,0.52,0.49,0.52,0.49l0.05,0.88l0.97-2.29l-10.97-1.78
		c-0.04-0.51-0.09-2.51,1.17-2.37l9.15,1.16l0.37-0.39l-1.15-0.22c-0.15-10.32-7.52-15.4-7.52-15.4c4.95,5.86,5.99,11.44,6.17,13.91
		c0.07,1.02-0.53,1.07-0.53,1.07l-6.92-1.14c-0.04-0.85,0.38-10.92-6.21-16.34c0,0,4.02,4.54,4.6,14.71
		c0.17,1.59-1.28,1.52-1.28,1.52l-12.05,0.05c-0.86-10.34,4.1-16.28,4.1-16.28c-4.43,3.87-5.96,10.33-6.33,14.04
		c-0.07,2.51-1.52,2.58-1.52,2.58l-5.33,0.72c0.9-13.06,9.82-16.67,11.89-17.4l1.53-0.35l0.3-0.04c0,0-1.35-0.24-1.31-0.89
		c0,0-0.07-0.58,0.63-0.66c0,0,2.29-0.33,4.4-0.2l2.26,0.51c0,0,0.37,0.02,0.32,0.52l-0.01,0.26l0.2-0.39l0.01-0.49l-0.51-0.34
		l-2.22-0.4v-1.54c0,0-0.02-0.23,0.29-0.17l1.48,0.35c0,0,0.57,0.21,0.71,0.66l0.06-0.45l-0.39-0.71l-2.52-0.55l-0.04,0l0.01-6.1
		l-2.1,0.02l0.02,0.37c0,0,1.48,0.24,1.46,2.2l0.08,3.53l-2.23,0.05L197,9.39c0.03-0.61,0.99-0.72,0.99-0.72h1.96
		c2.22,0.58,2.04,1.03,2.04,1.03l0.52-0.74V8.6l-2.64-0.58c-2.86,0.13-3.12-0.06-3.12-0.06c-0.25-0.1,0.3-0.4,0.3-0.4
		c0.54-0.32,0.38-0.42,0.38-0.42c-0.13-0.1-0.18-0.32-0.18-0.32c0.79-0.83,2.15-0.4,2.15-0.4c2.42,0.8,2.62,1.88,2.62,1.88
		l-0.03-0.91l-2.35-1.37l-0.43-0.57l-1.23,0.01l-0.44,0.56l-2.61,1.41l0.03,1.01l-0.58,0.2v0.36l0.47,0.64l0.02,8.14l-0.3,0.06
		l-0.38,0.66l-0.01,1.6l-0.48,0.33l0.09,0.63l0.72,0.93l-0.1,0.01c-12.43,3.58-13.61,15.68-13.7,17.67l-0.91,0.05l1.28,3.07
		l-1.55,0.61l1.31,1.84l0.05,11.62l-0.72,0.05l-0.2,2.28l10.36-1.19l15.68-0.01l10.46,1.27l-0.2-2.13L206.13,56.18L206.13,56.18z
		 M201.32,14.36l0.04,3.27l0.33,0.07l0.01-5.8l-1.28-0.47l0.01,0.51C200.43,11.93,201.32,12.2,201.32,14.36L201.32,14.36z"/>
	<path class="st2" d="M212.1,47.13l-0.01,7.52l2.5,0.22v-7.42L212.1,47.13L212.1,47.13z M208.01,54.19l2.5,0.23v-7.68l-2.49-0.32
		L208.01,54.19L208.01,54.19z M199.21,53.85h3.61v-7.86h-3.59L199.21,53.85L199.21,53.85z M193.66,53.85h3.61v-7.86h-3.58
		L193.66,53.85L193.66,53.85z M186.95,54.34l2.46-0.28l0.03-7.69l-2.48,0.36L186.95,54.34L186.95,54.34z M182.98,54.77l2.46-0.28
		l0.03-7.46L183,47.39L182.98,54.77L182.98,54.77z"/>
	<path d="M212.1,47.14l0,0.97c0,0,2.03,0.05,2.14,6.73l0.34,0.03v-7.41L212.1,47.14L212.1,47.14z M208.02,47.46
		c0,0,2.03,0.41,2.14,6.93l0.35,0.03v-7.68l-2.49-0.32L208.02,47.46L208.02,47.46z M199.24,47.18c0,0,3.03-0.46,3.18,6.67h0.41
		v-7.86h-3.59L199.24,47.18L199.24,47.18z M193.68,47.2c0,0,3.04-0.07,3.16,6.65h0.42v-7.86h-3.58L193.68,47.2L193.68,47.2z
		 M186.96,47.91c0,0,1.96-0.33,2.06,6.19l0.38-0.04l0.03-7.69l-2.48,0.36L186.96,47.91L186.96,47.91z M182.99,48.37
		c0,0,2.05-0.34,2.06,6.17l0.39-0.04l0.03-7.46L183,47.39L182.99,48.37L182.99,48.37z"/>
	<path d="M229.44,37.41c-0.33-0.98-0.9-2.14-2.19-2.14c-0.87,0-1.51,0.66-1.51,1.55c0,0.86,0.56,1.36,1.93,2.04
		c1.64,0.8,2.76,1.67,2.76,3.22c0,1.78-1.51,3.17-3.79,3.17c-0.56,0-1.11-0.08-1.58-0.22c-0.44-0.13-0.73-0.25-0.95-0.35
		c-0.14-0.39-0.34-1.7-0.45-2.65l0.55-0.17c0.31,1,1.24,2.75,2.73,2.75c0.95,0,1.56-0.66,1.56-1.64c0-0.92-0.69-1.5-1.85-2.13
		c-1.61-0.81-2.72-1.65-2.72-3.15c0-1.72,1.36-3.06,3.58-3.06c1,0,1.89,0.31,2.17,0.42c0.06,0.58,0.17,1.27,0.3,2.23L229.44,37.41
		L229.44,37.41z"/>
	<path d="M238.74,35.28c-1.56,0-2.79,1.67-2.79,4.37c0,2.67,1.19,4.93,3.19,4.93c1.48,0,2.68-1.45,2.68-4.32
		c0-3.11-1.26-4.98-3.06-4.98H238.74L238.74,35.28z M239.05,34.64c2.83,0,5.15,2.09,5.15,5.18c0,3.37-2.42,5.42-5.35,5.42
		c-3.12,0-5.29-2.3-5.29-5.29c0-2.68,1.9-5.31,5.48-5.31H239.05L239.05,34.64z"/>
	<path d="M257.71,35.41c-0.86,0.05-1.25,0.37-1.33,0.92c-0.08,0.48-0.14,1.06-0.14,2.17v1.7c0,1.65-0.25,2.96-1.12,3.9
		c-0.72,0.75-1.77,1.14-2.88,1.14c-1.03,0-2.01-0.22-2.76-0.82c-0.89-0.68-1.29-1.84-1.29-3.67v-3.67c0-1.47-0.16-1.57-1.31-1.69
		v-0.55h4.7v0.55c-1.14,0.11-1.3,0.22-1.3,1.69v3.39c0,2.34,0.84,3.7,2.53,3.7c1.86,0,2.67-1.41,2.67-4.01V38.5
		c0-1.11-0.08-1.7-0.16-2.17c-0.08-0.55-0.45-0.86-1.51-0.92v-0.55h3.92V35.41L257.71,35.41z"/>
	<path d="M269.02,37.53c-0.19-0.81-0.41-1.33-0.69-1.61c-0.27-0.28-0.67-0.38-1.58-0.38h-0.72v7.38c0,1.33,0.16,1.42,1.54,1.53v0.55
		h-5.09v-0.55c1.31-0.11,1.47-0.2,1.47-1.53v-7.38h-0.53c-1.28,0-1.56,0.17-1.8,0.42c-0.25,0.27-0.45,0.79-0.65,1.58h-0.56
		c0.06-1.14,0.16-2.28,0.18-3.07h0.38c0.25,0.36,0.45,0.39,0.89,0.39h6.27c0.42,0,0.64-0.09,0.91-0.39h0.38
		c0.01,0.65,0.09,2.03,0.17,3.02L269.02,37.53L269.02,37.53z"/>
	<path d="M283.95,35.41c-1.22,0.11-1.31,0.2-1.31,1.53v6.01c0,1.31,0.12,1.4,1.31,1.51v0.55h-4.76v-0.55
		c1.25-0.11,1.36-0.22,1.36-1.53v-2.9h-4.26v2.9c0,1.33,0.12,1.42,1.27,1.53v0.55h-4.64v-0.55c1.14-0.11,1.28-0.2,1.28-1.53v-5.99
		c0-1.33-0.14-1.42-1.34-1.53v-0.55h4.68v0.55c-1.12,0.11-1.25,0.2-1.25,1.53v2.29h4.26v-2.29c0-1.33-0.13-1.42-1.28-1.53v-0.55
		h4.68V35.41L283.95,35.41z"/>
	<path d="M295.78,42.42c-0.09,0.7-0.42,2.12-0.54,2.59h-7.96v-0.55c1.33-0.11,1.48-0.2,1.48-1.53v-5.99c0-1.36-0.16-1.44-1.27-1.53
		v-0.55h7.35c0.01,0.28,0.09,1.37,0.16,2.34l-0.57,0.08c-0.15-0.55-0.36-1.06-0.64-1.34c-0.27-0.28-0.69-0.39-1.56-0.39h-0.75
		c-0.58,0-0.64,0.03-0.64,0.55v3.31h1.05c1.31,0,1.51-0.08,1.73-1.17h0.56v3.15h-0.56c-0.22-1.12-0.41-1.18-1.73-1.18h-1.05v2.7
		c0,0.74,0.06,1.12,0.38,1.28c0.28,0.12,0.81,0.16,1.4,0.16c0.8,0,1.36-0.11,1.73-0.5c0.3-0.34,0.58-0.84,0.88-1.53L295.78,42.42
		L295.78,42.42z"/>
	<path d="M302.61,40.03c0.65,0,1.19-0.11,1.53-0.42c0.53-0.44,0.75-1.06,0.75-1.86c0-1.65-0.97-2.26-1.84-2.26
		c-0.4,0-0.61,0.06-0.7,0.16c-0.11,0.09-0.14,0.25-0.14,0.58v3.81H302.61L302.61,40.03z M308.48,45.15c-0.09,0-0.28-0.01-0.47-0.01
		c-1.96-0.1-2.57-0.53-3.2-1.51c-0.41-0.64-0.83-1.48-1.28-2.29c-0.24-0.49-0.53-0.67-1.02-0.69h-0.3v2.28
		c0,1.28,0.15,1.43,1.32,1.54v0.55h-4.71v-0.55c1.17-0.11,1.34-0.26,1.34-1.54v-5.99c0-1.25-0.14-1.4-1.28-1.51v-0.55h4.38
		c1.36,0,2.15,0.16,2.78,0.59c0.62,0.41,1.06,1.11,1.06,2.08c0,1.37-0.9,2.1-1.95,2.54c0.22,0.45,0.81,1.5,1.26,2.22
		c0.56,0.86,0.89,1.36,1.2,1.69c0.35,0.36,0.59,0.55,0.95,0.67L308.48,45.15L308.48,45.15z"/>
	<path d="M321.81,35.41c-0.85,0.05-1.17,0.25-1.25,0.97c-0.04,0.49-0.14,1.22-0.14,2.59v6.2h-0.75l-6.49-7.77h-0.05v3.51
		c0,1.37,0.08,2.06,0.12,2.53c0.08,0.69,0.35,0.98,1.5,1.03v0.55h-3.82v-0.55c0.87-0.06,1.23-0.31,1.29-0.98
		c0.06-0.52,0.16-1.2,0.16-2.58v-3.26c0-1.02-0.03-1.31-0.33-1.67c-0.28-0.38-0.64-0.5-1.29-0.56v-0.55h2.89l5.96,6.85h0.06v-2.75
		c0-1.37-0.09-2.1-0.13-2.56c-0.08-0.67-0.4-0.94-1.54-1v-0.55h3.81V35.41L321.81,35.41z"/>
	<path d="M230.61,58.57v-0.5c1.07-0.11,1.15-0.21,1.13-1.52l-0.03-5.45h-0.07l-3.13,7.37h-0.4l-2.89-7.23h-0.05l-0.17,3.7
		c-0.06,1.17-0.06,1.84,0,2.28c0.06,0.63,0.34,0.76,1.27,0.85v0.5h-3.4v-0.5c0.79-0.07,1.06-0.33,1.15-0.82
		c0.08-0.46,0.2-1.19,0.3-2.66l0.23-2.81c0.11-1.61,0.01-1.81-1.2-1.93v-0.5h2.93l2.74,6.21l2.78-6.21h2.85v0.5
		c-1.13,0.11-1.2,0.23-1.16,1.4l0.13,5.3c0.03,1.3,0.1,1.41,1.2,1.52v0.5H230.61L230.61,58.57z"/>
	<path d="M237.65,58.57v-0.5c1.05-0.1,1.18-0.2,1.18-1.39v-5.43c0-1.21-0.13-1.3-1.18-1.4v-0.5h4.25v0.5
		c-1.05,0.1-1.18,0.2-1.18,1.4v5.43c0,1.19,0.13,1.29,1.18,1.39v0.5H237.65L237.65,58.57z"/>
	<path d="M250.3,51.67c-0.3-0.89-0.82-1.94-1.99-1.94c-0.79,0-1.37,0.6-1.37,1.4c0,0.78,0.51,1.23,1.76,1.85
		c1.49,0.72,2.51,1.52,2.51,2.92c0,1.62-1.37,2.88-3.45,2.88c-0.51,0-1-0.07-1.43-0.2c-0.4-0.11-0.67-0.23-0.87-0.31
		c-0.12-0.35-0.31-1.54-0.41-2.41l0.5-0.15c0.29,0.91,1.12,2.49,2.48,2.49c0.87,0,1.42-0.6,1.42-1.49c0-0.84-0.62-1.36-1.69-1.93
		c-1.46-0.74-2.46-1.5-2.46-2.87c0-1.56,1.23-2.78,3.25-2.78c0.9,0,1.71,0.28,1.97,0.38c0.06,0.52,0.15,1.15,0.27,2.03L250.3,51.67
		L250.3,51.67z"/>
	<path d="M259.51,51.67c-0.3-0.89-0.82-1.94-1.99-1.94c-0.79,0-1.37,0.6-1.37,1.4c0,0.78,0.5,1.23,1.75,1.85
		c1.49,0.72,2.51,1.52,2.51,2.92c0,1.62-1.38,2.88-3.44,2.88c-0.51,0-1.01-0.07-1.44-0.2c-0.39-0.11-0.66-0.23-0.86-0.31
		c-0.12-0.35-0.31-1.54-0.41-2.41l0.5-0.15c0.28,0.91,1.12,2.49,2.48,2.49c0.87,0,1.42-0.6,1.42-1.49c0-0.84-0.62-1.36-1.68-1.93
		c-1.46-0.74-2.47-1.5-2.47-2.87c0-1.56,1.23-2.78,3.24-2.78c0.91,0,1.72,0.28,1.97,0.38c0.06,0.52,0.16,1.15,0.27,2.03
		L259.51,51.67L259.51,51.67z"/>
	<path d="M263.29,58.57v-0.5c1.05-0.1,1.18-0.2,1.18-1.39v-5.43c0-1.21-0.13-1.3-1.18-1.4v-0.5h4.25v0.5
		c-1.05,0.1-1.17,0.2-1.17,1.4v5.43c0,1.19,0.13,1.29,1.17,1.39v0.5H263.29L263.29,58.57z"/>
	<path d="M275.95,51.67c-0.3-0.89-0.82-1.94-1.99-1.94c-0.79,0-1.37,0.6-1.37,1.4c0,0.78,0.51,1.23,1.76,1.85
		c1.49,0.72,2.51,1.52,2.51,2.92c0,1.62-1.38,2.88-3.44,2.88c-0.52,0-1.01-0.07-1.43-0.2c-0.4-0.11-0.67-0.23-0.87-0.31
		c-0.13-0.35-0.31-1.54-0.42-2.41l0.5-0.15c0.28,0.91,1.12,2.49,2.48,2.49c0.86,0,1.42-0.6,1.42-1.49c0-0.84-0.62-1.36-1.68-1.93
		c-1.46-0.74-2.47-1.5-2.47-2.87c0-1.56,1.23-2.78,3.25-2.78c0.9,0,1.71,0.28,1.97,0.38c0.06,0.52,0.15,1.15,0.27,2.03L275.95,51.67
		L275.95,51.67z"/>
	<path d="M285.16,51.67c-0.3-0.89-0.82-1.94-1.98-1.94c-0.79,0-1.38,0.6-1.38,1.4c0,0.78,0.51,1.23,1.76,1.85
		c1.49,0.72,2.51,1.52,2.51,2.92c0,1.62-1.37,2.88-3.44,2.88c-0.51,0-1.01-0.07-1.43-0.2c-0.4-0.11-0.67-0.23-0.86-0.31
		c-0.13-0.35-0.31-1.54-0.41-2.41l0.5-0.15c0.29,0.91,1.12,2.49,2.48,2.49c0.87,0,1.42-0.6,1.42-1.49c0-0.84-0.62-1.36-1.69-1.93
		c-1.46-0.74-2.47-1.5-2.47-2.87c0-1.56,1.24-2.78,3.25-2.78c0.91,0,1.71,0.28,1.97,0.38c0.06,0.52,0.16,1.15,0.27,2.03
		L285.16,51.67L285.16,51.67z"/>
	<path d="M288.94,58.57v-0.5c1.05-0.1,1.18-0.2,1.18-1.39v-5.43c0-1.21-0.12-1.3-1.18-1.4v-0.5h4.25v0.5
		c-1.05,0.1-1.17,0.2-1.17,1.4v5.43c0,1.19,0.13,1.29,1.17,1.39v0.5H288.94L288.94,58.57z"/>
	<path d="M299.4,54.18c0.17,0.07,0.47,0.14,0.77,0.14c0.52,0,1.66-0.37,1.66-2.28c0-1.6-0.91-2.12-1.77-2.12
		c-0.27,0-0.44,0.07-0.53,0.14c-0.09,0.09-0.13,0.23-0.13,0.44V54.18L299.4,54.18z M300.32,49.35c1.12,0,1.92,0.16,2.48,0.55
		c0.66,0.45,1.05,1.16,1.05,2.08c0,1.9-1.4,2.76-2.89,2.95c-0.21,0.03-0.44,0.03-0.6,0.03l-0.96-0.23v1.94c0,1.2,0.13,1.3,1.35,1.41
		v0.48h-4.41v-0.48c1.06-0.1,1.2-0.2,1.2-1.41v-5.43c0-1.21-0.13-1.29-1.11-1.4v-0.5H300.32L300.32,49.35z"/>
	<path d="M309.73,54.18c0.17,0.07,0.47,0.14,0.77,0.14c0.52,0,1.66-0.37,1.66-2.28c0-1.6-0.91-2.12-1.77-2.12
		c-0.27,0-0.44,0.07-0.52,0.14c-0.09,0.09-0.13,0.23-0.13,0.44V54.18L309.73,54.18z M310.65,49.35c1.12,0,1.92,0.16,2.48,0.55
		c0.66,0.45,1.05,1.16,1.05,2.08c0,1.9-1.4,2.76-2.89,2.95c-0.21,0.03-0.44,0.03-0.59,0.03l-0.96-0.23v1.94
		c0,1.2,0.13,1.3,1.35,1.41v0.48h-4.41v-0.48c1.06-0.1,1.19-0.2,1.19-1.41v-5.43c0-1.21-0.13-1.29-1.11-1.4v-0.5H310.65
		L310.65,49.35z"/>
	<path d="M316.87,58.57v-0.5c1.05-0.1,1.18-0.2,1.18-1.39v-5.43c0-1.21-0.13-1.3-1.18-1.4v-0.5h4.25v0.5
		c-1.05,0.1-1.18,0.2-1.18,1.4v5.43c0,1.19,0.13,1.29,1.18,1.39v0.5H316.87L316.87,58.57z"/>
	<path d="M227.79,27.44c-0.11-0.41-0.18-0.59-0.29-0.71c-0.12-0.14-0.32-0.18-0.67-0.18h-0.37v2.95c0,0.66,0.06,0.7,0.72,0.75v0.29
		h-2.44v-0.29c0.63-0.05,0.68-0.09,0.68-0.75v-2.95h-0.25c-0.49,0-0.65,0.07-0.77,0.21c-0.11,0.13-0.19,0.33-0.28,0.67h-0.3
		c0.03-0.56,0.08-1.06,0.08-1.4h0.22c0.11,0.15,0.18,0.17,0.4,0.17h2.87c0.22,0,0.26-0.04,0.37-0.17H228c0.01,0.32,0.05,1,0.09,1.38
		L227.79,27.44L227.79,27.44z"/>
	<path d="M233.11,30.55v-0.29c0.54-0.05,0.6-0.1,0.6-0.75v-1.05h-1.88v1.05c0,0.65,0.05,0.71,0.55,0.75v0.29h-2.23v-0.29
		c0.59-0.04,0.64-0.09,0.64-0.75v-2.26c0-0.66-0.05-0.7-0.67-0.76V26.2h2.27v0.28c-0.52,0.06-0.57,0.09-0.57,0.76v0.79h1.88v-0.79
		c0-0.66-0.07-0.7-0.59-0.76V26.2h2.25v0.27c-0.57,0.07-0.63,0.12-0.63,0.77v2.26c0,0.66,0.05,0.7,0.63,0.75v0.29H233.11
		L233.11,30.55z"/>
	<path d="M241.51,29.36c-0.04,0.32-0.19,1.01-0.25,1.19h-3.79v-0.29c0.63-0.05,0.68-0.09,0.68-0.75v-2.28
		c0-0.66-0.05-0.69-0.63-0.73V26.2h3.57c0.01,0.19,0.04,0.65,0.07,1.09l-0.29,0.02c-0.1-0.28-0.16-0.42-0.26-0.54
		c-0.12-0.15-0.3-0.21-0.76-0.21h-0.39c-0.26,0-0.27,0.02-0.27,0.27v1.28h0.58c0.53,0,0.59-0.06,0.67-0.5h0.3v1.41h-0.3
		c-0.07-0.44-0.14-0.52-0.67-0.52h-0.58v0.99c0,0.39,0.05,0.56,0.16,0.63c0.12,0.08,0.33,0.1,0.7,0.1c0.4,0,0.63-0.05,0.8-0.24
		c0.13-0.13,0.25-0.34,0.38-0.64L241.51,29.36L241.51,29.36z"/>
	<path d="M251.94,26.49c-0.41,0.02-0.58,0.12-0.62,0.39c-0.03,0.21-0.05,0.52-0.05,1.12v0.51c0,0.72-0.13,1.3-0.52,1.68
		c-0.32,0.31-0.78,0.49-1.31,0.49c-0.48,0-0.92-0.1-1.26-0.35c-0.39-0.28-0.62-0.77-0.62-1.57v-1.53c0-0.64-0.05-0.68-0.63-0.73
		V26.2h2.29v0.28c-0.57,0.06-0.62,0.09-0.62,0.73v1.31c0,1.08,0.4,1.6,1.13,1.6c0.76,0,1.14-0.58,1.14-1.67V28
		c0-0.66-0.02-0.92-0.05-1.13c-0.04-0.27-0.21-0.36-0.73-0.39V26.2h1.86V26.49L251.94,26.49z"/>
	<path d="M258.81,26.49c-0.39,0.03-0.6,0.11-0.62,0.39c-0.03,0.27-0.06,0.56-0.06,1.19v2.53h-0.46l-2.78-3.29l-0.01,0.01v1.36
		c0,0.65,0.03,0.95,0.06,1.17c0.04,0.3,0.23,0.38,0.73,0.41v0.29h-1.85v-0.29c0.4-0.04,0.58-0.12,0.62-0.41
		c0.03-0.23,0.07-0.53,0.07-1.17v-1.24c0-0.76-0.17-0.9-0.78-0.94V26.2h1.51l2.49,2.84h0.02v-0.97c0-0.63-0.03-0.92-0.06-1.17
		c-0.03-0.3-0.2-0.39-0.73-0.42V26.2h1.86V26.49L258.81,26.49z"/>
	<path d="M260.74,30.55v-0.29c0.57-0.04,0.63-0.09,0.63-0.71v-2.32c0-0.64-0.07-0.68-0.63-0.73V26.2h2.3v0.29
		c-0.58,0.04-0.64,0.08-0.64,0.73v2.31c0,0.64,0.05,0.68,0.64,0.72v0.29H260.74L260.74,30.55z"/>
	<path d="M270.04,26.49c-0.48,0.07-0.6,0.16-0.88,0.7c-0.32,0.61-0.94,2.07-1.5,3.45h-0.35c-0.51-1.21-1.06-2.5-1.51-3.57
		c-0.21-0.48-0.38-0.53-0.78-0.58V26.2h2.24v0.29l-0.23,0.04c-0.25,0.05-0.28,0.13-0.16,0.46c0.26,0.62,0.62,1.5,0.97,2.34
		c0.28-0.64,0.77-1.91,0.89-2.29c0.12-0.38,0.09-0.48-0.23-0.53l-0.18-0.03V26.2h1.71V26.49L270.04,26.49z"/>
	<path d="M276.03,29.36c-0.04,0.32-0.19,1.01-0.25,1.19h-3.79v-0.29c0.63-0.05,0.68-0.09,0.68-0.75v-2.28
		c0-0.66-0.06-0.69-0.63-0.73V26.2h3.57c0.01,0.19,0.04,0.65,0.07,1.09l-0.29,0.02c-0.09-0.28-0.16-0.42-0.26-0.54
		c-0.12-0.15-0.3-0.21-0.75-0.21h-0.4c-0.26,0-0.27,0.02-0.27,0.27v1.28h0.58c0.53,0,0.59-0.06,0.66-0.5h0.3v1.41h-0.3
		c-0.07-0.44-0.14-0.52-0.66-0.52h-0.58v0.99c0,0.39,0.04,0.56,0.16,0.63c0.12,0.08,0.32,0.1,0.69,0.1c0.41,0,0.64-0.05,0.81-0.24
		c0.13-0.13,0.25-0.34,0.38-0.64L276.03,29.36L276.03,29.36z"/>
	<path d="M279.99,28.37c0.27,0,0.49-0.03,0.67-0.16c0.22-0.14,0.34-0.42,0.34-0.75c0-0.67-0.44-0.94-0.91-0.94
		c-0.3,0-0.37,0.08-0.37,0.33v1.52H279.99L279.99,28.37z M282.75,30.61h-0.29c-0.94,0-1.23-0.22-1.49-0.6
		c-0.22-0.3-0.43-0.68-0.61-1.01c-0.13-0.23-0.21-0.31-0.5-0.31h-0.14v0.84c0,0.62,0.06,0.67,0.63,0.72v0.29h-2.29v-0.29
		c0.58-0.04,0.64-0.09,0.64-0.71V27.2c0-0.63-0.05-0.66-0.61-0.71V26.2h2.33c0.53,0,0.88,0.05,1.17,0.22
		c0.31,0.18,0.5,0.49,0.5,0.89c0,0.58-0.43,0.94-0.93,1.12c0.12,0.22,0.42,0.69,0.65,1c0.23,0.34,0.36,0.51,0.52,0.67
		c0.15,0.14,0.31,0.21,0.45,0.26L282.75,30.61L282.75,30.61z"/>
	<path d="M287.48,27.47c-0.18-0.58-0.51-1.05-1.07-1.05c-0.39,0-0.65,0.28-0.65,0.62c0,0.43,0.35,0.6,0.7,0.74l0.24,0.1
		c0.72,0.29,1.3,0.63,1.3,1.37c0,0.86-0.73,1.42-1.77,1.42c-0.65,0-1.11-0.24-1.28-0.34c-0.07-0.17-0.16-0.71-0.23-1.21l0.29-0.07
		c0.19,0.53,0.66,1.3,1.34,1.3c0.45,0,0.72-0.29,0.72-0.68c0.01-0.37-0.26-0.58-0.71-0.77l-0.29-0.12
		c-0.53-0.21-1.17-0.59-1.17-1.31c0-0.82,0.61-1.37,1.7-1.37c0.46,0,0.87,0.15,1.04,0.22c0.05,0.26,0.1,0.59,0.16,1.09L287.48,27.47
		L287.48,27.47z"/>
	<path d="M290.04,30.55v-0.29c0.57-0.04,0.64-0.09,0.64-0.71v-2.32c0-0.64-0.06-0.68-0.64-0.73V26.2h2.31v0.29
		c-0.58,0.04-0.63,0.08-0.63,0.73v2.31c0,0.64,0.06,0.68,0.63,0.72v0.29H290.04L290.04,30.55z"/>
	<path d="M298.41,27.44c-0.11-0.41-0.18-0.59-0.29-0.71c-0.12-0.14-0.32-0.18-0.66-0.18h-0.37v2.95c0,0.66,0.07,0.7,0.72,0.75v0.29
		h-2.44v-0.29c0.63-0.05,0.68-0.09,0.68-0.75v-2.95h-0.25c-0.49,0-0.65,0.07-0.77,0.21c-0.11,0.13-0.2,0.33-0.28,0.67h-0.3
		c0.03-0.56,0.08-1.06,0.08-1.4h0.21c0.11,0.15,0.18,0.17,0.41,0.17h2.87c0.22,0,0.26-0.04,0.37-0.17h0.21
		c0.01,0.32,0.04,1,0.09,1.38L298.41,27.44L298.41,27.44z"/>
	<path d="M305.3,26.49c-0.48,0.05-0.61,0.14-0.88,0.53c-0.19,0.3-0.43,0.69-0.78,1.35c-0.09,0.16-0.11,0.25-0.11,0.4v0.77
		c0,0.6,0.07,0.66,0.72,0.71v0.29h-2.46v-0.29c0.66-0.06,0.71-0.1,0.71-0.7v-0.7c0-0.21-0.04-0.3-0.14-0.47
		c-0.24-0.43-0.48-0.83-0.8-1.36c-0.25-0.42-0.37-0.49-0.79-0.53V26.2h2.15v0.29l-0.26,0.05c-0.2,0.04-0.2,0.13-0.1,0.32
		c0.26,0.47,0.54,0.94,0.77,1.36c0.28-0.5,0.54-1.01,0.67-1.3c0.12-0.26,0.09-0.35-0.14-0.39l-0.25-0.04V26.2h1.69V26.49
		L305.3,26.49z"/>
	<path d="M313.03,26.42c-0.6,0-1.17,0.64-1.17,1.85c0,1.23,0.57,2.07,1.34,2.07c0.62,0,1.15-0.49,1.15-1.83
		C314.35,27.45,313.89,26.42,313.03,26.42L313.03,26.42L313.03,26.42z M313.13,26.08c1.46,0,2.39,0.99,2.39,2.23
		c0,1.55-1.16,2.35-2.4,2.35c-1.58,0-2.42-1.12-2.42-2.21C310.7,26.84,312,26.08,313.13,26.08L313.13,26.08L313.13,26.08z"/>
	<path d="M321,27.36c-0.09-0.27-0.15-0.44-0.25-0.57c-0.11-0.15-0.28-0.24-0.75-0.24h-0.46c-0.24,0.02-0.25,0.01-0.25,0.27v1.41
		h0.64c0.61,0,0.67-0.05,0.77-0.52h0.3v1.46h-0.3c-0.08-0.53-0.15-0.56-0.77-0.56h-0.63v0.94c0,0.61,0.07,0.66,0.72,0.7v0.29h-2.37
		v-0.29c0.56-0.04,0.62-0.09,0.62-0.69v-2.35c0-0.63-0.06-0.68-0.62-0.72V26.2h3.57c0.01,0.19,0.03,0.65,0.08,1.12L321,27.36
		L321,27.36z"/>
	<path d="M322.83,57.13v0.34h0.21c0.19,0,0.44,0.03,0.44-0.16c0-0.17-0.14-0.19-0.31-0.19H322.83L322.83,57.13z M323.66,58.3h-0.23
		l-0.35-0.63h-0.26v0.63h-0.2v-1.37h0.58c0.25,0,0.47,0.07,0.47,0.36c0,0.27-0.18,0.37-0.37,0.38L323.66,58.3L323.66,58.3z
		 M322.08,57.61c0,0.58,0.47,1.02,1.02,1.02s1.02-0.45,1.02-1.02c0-0.58-0.46-1.02-1.02-1.02S322.08,57.03,322.08,57.61
		L322.08,57.61z M321.88,57.61c0-0.68,0.54-1.22,1.22-1.22c0.68,0,1.22,0.54,1.22,1.22c0,0.68-0.54,1.22-1.22,1.22
		C322.42,58.83,321.88,58.29,321.88,57.61L321.88,57.61z"/>
</g>
<path class="st3" d="M-159.03,125.97"/>
<g>
	<g>
		<path d="M135.79,18.25h-1.63v4.47h-0.73v-4.47h-1.67v-0.68h4.03V18.25z M142.25,22.72h-0.73V18.4h-0.03l-1.7,4.32h-0.48l-1.7-4.32
			h-0.02v4.32h-0.73v-5.15h1.14l1.58,3.95l1.58-3.95h1.1V22.72z"/>
	</g>
	<path d="M36.51,17.32V57.5H23.86L12.62,35.46c-0.56-1.1-1.43-3.02-2.62-5.77L8.73,26.8l-1.24-2.89H7.2l0.12,2.65l0.09,2.62
		l0.06,5.27V57.5H0V17.32h12.65l10.23,20.37c0.9,1.81,1.95,4,3.14,6.56l1.5,3.27l1.5,3.29h0.26l-0.08-2.58l-0.09-2.59l-0.06-5.18
		V17.32H36.51z"/>
	<path d="M66.49,43.17h7.49v1.38c0,5.6-1,9.21-3,10.85c-2,1.64-6.42,2.46-13.25,2.46c-7.76,0-12.54-1.3-14.32-3.89
		c-1.78-2.59-2.68-9.51-2.68-20.78c0-6.64,1.21-11,3.63-13.09c2.42-2.09,7.48-3.13,15.19-3.13c5.61,0,9.36,0.86,11.24,2.57
		c1.88,1.72,2.82,5.13,2.82,10.23l0.03,0.91h-7.49v-1.03c0-2.63-0.49-4.31-1.46-5.05c-0.97-0.73-3.18-1.1-6.64-1.1
		c-4.63,0-7.41,0.58-8.34,1.74c-0.93,1.16-1.4,4.59-1.4,10.3c0,7.69,0.42,12.25,1.26,13.66c0.83,1.42,3.54,2.12,8.11,2.12
		c3.71,0,6.11-0.39,7.22-1.18c1.11-0.79,1.66-2.52,1.66-5.18L66.49,43.17z"/>
	<path d="M108.83,29.04h-7.29c-0.04-0.37-0.05-0.65-0.05-0.83c-0.17-2.25-0.67-3.67-1.47-4.25c-0.81-0.58-2.71-0.87-5.71-0.87
		c-3.53,0-5.84,0.34-6.93,1c-1.08,0.67-1.63,2.07-1.63,4.21c0,2.53,0.44,4.05,1.33,4.56c0.89,0.51,3.8,0.9,8.76,1.18
		c5.86,0.33,9.65,1.18,11.37,2.56c1.72,1.37,2.58,4.22,2.58,8.56c0,5.34-1.01,8.79-3.02,10.35c-2.02,1.56-6.46,2.34-13.34,2.34
		c-6.19,0-10.29-0.76-12.32-2.29c-2.03-1.53-3.04-4.63-3.04-9.3l-0.03-1.47h7.26l0.03,0.86c0,2.8,0.48,4.52,1.44,5.15
		c0.96,0.63,3.58,0.94,7.87,0.94c3.34,0,5.48-0.36,6.39-1.09c0.93-0.73,1.38-2.4,1.38-5.03c0-1.94-0.35-3.24-1.05-3.87
		c-0.7-0.64-2.22-1.03-4.54-1.16l-4.12-0.27c-6.22-0.37-10.2-1.26-11.93-2.65c-1.73-1.39-2.59-4.39-2.59-8.98
		c0-4.69,1.04-7.82,3.12-9.38c2.09-1.56,6.25-2.34,12.49-2.34c5.92,0,9.9,0.71,11.96,2.15c2.05,1.43,3.08,4.23,3.08,8.39V29.04z"/>
	<path d="M127.19,17.1v12.99h2.29v2.98h-2.29v4.36h-3.78v-4.36h-10.74v-4.33l8.69-11.63H127.19z M123.42,30.09V20.02h-0.12
		l-7.54,10.07H123.42z"/>
</g>
<line class="st4" x1="155.89" y1="0" x2="155.89" y2="65.99"/>
</svg>
