<?xml version="1.0" encoding="utf-8"?>
<!-- Generator: Adobe Illustrator 25.3.1, SVG Export Plug-In . SVG Version: 6.00 Build 0)  -->
<svg version="1.1" id="Layer_1" xmlns="http://www.w3.org/2000/svg" xmlns:xlink="http://www.w3.org/1999/xlink" x="0px" y="0px"
	 viewBox="0 0 330 77" style="enable-background:new 0 0 330 77;" xml:space="preserve">
<style type="text/css">
	.st0{fill:#FFFFFF;}
	.st1{fill:none;stroke:#FFFFFF;stroke-width:1.0357;}
	.st2{fill:#FFCE34;}
	.st3{fill:#010102;stroke:#FFFFFF;stroke-width:0.521;stroke-miterlimit:10;}
	.st4{fill:none;stroke:#FFCE34;stroke-width:1.1085;stroke-miterlimit:10;}
</style>
<g>
	<path class="st0" d="M231.3,41.8c-0.3-1-0.9-2.1-2.2-2.1c-0.9,0-1.5,0.7-1.5,1.5c0,0.9,0.6,1.4,1.9,2c1.6,0.8,2.8,1.7,2.8,3.2
		c0,1.8-1.5,3.2-3.8,3.2c-0.6,0-1.1-0.1-1.6-0.2c-0.4-0.1-0.7-0.2-1-0.4c-0.1-0.4-0.3-1.7-0.5-2.6l0.5-0.2c0.3,1,1.2,2.8,2.7,2.8
		c1,0,1.6-0.7,1.6-1.6c0-0.9-0.7-1.5-1.9-2.1c-1.6-0.8-2.7-1.6-2.7-3.1c0-1.7,1.4-3.1,3.6-3.1c1,0,1.9,0.3,2.2,0.4
		c0.1,0.6,0.2,1.3,0.3,2.2L231.3,41.8L231.3,41.8z"/>
	<path class="st0" d="M240.6,39.6c-1.6,0-2.8,1.7-2.8,4.4c0,2.7,1.2,4.9,3.2,4.9c1.5,0,2.7-1.5,2.7-4.3
		C243.7,41.5,242.4,39.6,240.6,39.6L240.6,39.6L240.6,39.6z M240.9,39c2.8,0,5.2,2.1,5.2,5.2c0,3.4-2.4,5.4-5.4,5.4
		c-3.1,0-5.3-2.3-5.3-5.3C235.4,41.6,237.3,39,240.9,39L240.9,39L240.9,39z"/>
	<path class="st0" d="M259.6,39.8c-0.9,0-1.2,0.4-1.3,0.9c-0.1,0.5-0.1,1.1-0.1,2.2v1.7c0,1.7-0.2,3-1.1,3.9
		c-0.7,0.8-1.8,1.1-2.9,1.1c-1,0-2-0.2-2.8-0.8c-0.9-0.7-1.3-1.8-1.3-3.7v-3.7c0-1.5-0.2-1.6-1.3-1.7v-0.5h4.7v0.5
		c-1.1,0.1-1.3,0.2-1.3,1.7v3.4c0,2.3,0.8,3.7,2.5,3.7c1.9,0,2.7-1.4,2.7-4v-1.7c0-1.1-0.1-1.7-0.2-2.2c-0.1-0.5-0.5-0.9-1.5-0.9
		v-0.5h3.9L259.6,39.8L259.6,39.8z"/>
	<path class="st0" d="M271,41.9c-0.2-0.8-0.4-1.3-0.7-1.6c-0.3-0.3-0.7-0.4-1.6-0.4H268v7.4c0,1.3,0.2,1.4,1.5,1.5v0.5h-5.1v-0.5
		c1.3-0.1,1.5-0.2,1.5-1.5v-7.4h-0.5c-1.3,0-1.6,0.2-1.8,0.4c-0.2,0.3-0.5,0.8-0.7,1.6h-0.6c0.1-1.1,0.2-2.3,0.2-3.1h0.4
		c0.2,0.4,0.5,0.4,0.9,0.4h6.3c0.4,0,0.6-0.1,0.9-0.4h0.4c0,0.6,0.1,2,0.2,3L271,41.9L271,41.9z"/>
	<path class="st0" d="M285.9,39.8c-1.2,0.1-1.3,0.2-1.3,1.5v6c0,1.3,0.1,1.4,1.3,1.5v0.5h-4.8v-0.5c1.2-0.1,1.4-0.2,1.4-1.5v-2.9
		h-4.3v2.9c0,1.3,0.1,1.4,1.3,1.5v0.5h-4.6v-0.5c1.1-0.1,1.3-0.2,1.3-1.5v-6c0-1.3-0.1-1.4-1.3-1.5v-0.5h4.7v0.5
		c-1.1,0.1-1.2,0.2-1.2,1.5v2.3h4.3v-2.3c0-1.3-0.1-1.4-1.3-1.5v-0.5h4.7L285.9,39.8L285.9,39.8z"/>
	<path class="st0" d="M297.7,46.8c-0.1,0.7-0.4,2.1-0.5,2.6h-8v-0.5c1.3-0.1,1.5-0.2,1.5-1.5v-6c0-1.4-0.2-1.4-1.3-1.5v-0.5h7.4
		c0,0.3,0.1,1.4,0.2,2.3l-0.6,0.1c-0.1-0.5-0.4-1.1-0.6-1.3c-0.3-0.3-0.7-0.4-1.6-0.4h-0.8c-0.6,0-0.6,0-0.6,0.5v3.3h1
		c1.3,0,1.5-0.1,1.7-1.2h0.6v3.2h-0.6c-0.2-1.1-0.4-1.2-1.7-1.2h-1v2.7c0,0.7,0.1,1.1,0.4,1.3c0.3,0.1,0.8,0.2,1.4,0.2
		c0.8,0,1.4-0.1,1.7-0.5c0.3-0.3,0.6-0.8,0.9-1.5L297.7,46.8L297.7,46.8z"/>
	<path class="st0" d="M304.6,44.4c0.7,0,1.2-0.1,1.5-0.4c0.5-0.4,0.8-1.1,0.8-1.9c0-1.7-1-2.3-1.8-2.3c-0.4,0-0.6,0.1-0.7,0.2
		c-0.1,0.1-0.1,0.2-0.1,0.6v3.8H304.6L304.6,44.4z M310.5,49.5c-0.1,0-0.3,0-0.5,0c-2-0.1-2.6-0.5-3.2-1.5c-0.4-0.6-0.8-1.5-1.3-2.3
		c-0.2-0.5-0.5-0.7-1-0.7h-0.3v2.3c0,1.3,0.1,1.4,1.3,1.5v0.5h-4.7v-0.5c1.2-0.1,1.3-0.3,1.3-1.5v-6c0-1.2-0.1-1.4-1.3-1.5v-0.5h4.4
		c1.4,0,2.1,0.2,2.8,0.6c0.6,0.4,1.1,1.1,1.1,2.1c0,1.4-0.9,2.1-2,2.5c0.2,0.5,0.8,1.5,1.3,2.2c0.6,0.9,0.9,1.4,1.2,1.7
		c0.4,0.4,0.6,0.5,1,0.7L310.5,49.5L310.5,49.5z"/>
	<path class="st0" d="M323.8,39.8c-0.9,0-1.2,0.2-1.2,1c0,0.5-0.1,1.2-0.1,2.6v6.2h-0.8l-6.5-7.8h0v3.5c0,1.4,0.1,2.1,0.1,2.5
		c0.1,0.7,0.4,1,1.5,1v0.5h-3.8v-0.5c0.9-0.1,1.2-0.3,1.3-1c0.1-0.5,0.2-1.2,0.2-2.6V42c0-1,0-1.3-0.3-1.7c-0.3-0.4-0.6-0.5-1.3-0.6
		v-0.5h2.9l6,6.9h0.1v-2.8c0-1.4-0.1-2.1-0.1-2.6c-0.1-0.7-0.4-0.9-1.5-1v-0.5h3.8L323.8,39.8L323.8,39.8z"/>
	<path class="st0" d="M232.5,63v-0.5c1.1-0.1,1.1-0.2,1.1-1.5l0-5.5h-0.1l-3.1,7.4H230l-2.9-7.2h0l-0.2,3.7c-0.1,1.2-0.1,1.8,0,2.3
		c0.1,0.6,0.3,0.8,1.3,0.9V63h-3.4v-0.5c0.8-0.1,1.1-0.3,1.1-0.8c0.1-0.5,0.2-1.2,0.3-2.7l0.2-2.8c0.1-1.6,0-1.8-1.2-1.9v-0.5h2.9
		l2.7,6.2l2.8-6.2h2.9v0.5c-1.1,0.1-1.2,0.2-1.2,1.4l0.1,5.3c0,1.3,0.1,1.4,1.2,1.5V63L232.5,63L232.5,63z"/>
	<path class="st0" d="M239.5,63v-0.5c1-0.1,1.2-0.2,1.2-1.4v-5.4c0-1.2-0.1-1.3-1.2-1.4v-0.5h4.3v0.5c-1,0.1-1.2,0.2-1.2,1.4v5.4
		c0,1.2,0.1,1.3,1.2,1.4V63H239.5L239.5,63z"/>
	<path class="st0" d="M252.2,56c-0.3-0.9-0.8-1.9-2-1.9c-0.8,0-1.4,0.6-1.4,1.4c0,0.8,0.5,1.2,1.8,1.9c1.5,0.7,2.5,1.5,2.5,2.9
		c0,1.6-1.4,2.9-3.5,2.9c-0.5,0-1-0.1-1.4-0.2c-0.4-0.1-0.7-0.2-0.9-0.3c-0.1-0.4-0.3-1.5-0.4-2.4l0.5-0.1c0.3,0.9,1.1,2.5,2.5,2.5
		c0.9,0,1.4-0.6,1.4-1.5c0-0.8-0.6-1.4-1.7-1.9c-1.5-0.7-2.5-1.5-2.5-2.9c0-1.6,1.2-2.8,3.2-2.8c0.9,0,1.7,0.3,2,0.4
		c0.1,0.5,0.1,1.1,0.3,2L252.2,56L252.2,56z"/>
	<path class="st0" d="M261.4,56c-0.3-0.9-0.8-1.9-2-1.9c-0.8,0-1.4,0.6-1.4,1.4c0,0.8,0.5,1.2,1.8,1.9c1.5,0.7,2.5,1.5,2.5,2.9
		c0,1.6-1.4,2.9-3.5,2.9c-0.5,0-1-0.1-1.4-0.2c-0.4-0.1-0.7-0.2-0.9-0.3c-0.1-0.4-0.3-1.5-0.4-2.4l0.5-0.1c0.3,0.9,1.1,2.5,2.5,2.5
		c0.9,0,1.4-0.6,1.4-1.5c0-0.8-0.6-1.4-1.7-1.9c-1.5-0.7-2.5-1.5-2.5-2.9c0-1.6,1.2-2.8,3.2-2.8c0.9,0,1.7,0.3,2,0.4
		c0.1,0.5,0.2,1.1,0.3,2L261.4,56L261.4,56z"/>
	<path class="st0" d="M265.2,63v-0.5c1-0.1,1.2-0.2,1.2-1.4v-5.4c0-1.2-0.1-1.3-1.2-1.4v-0.5h4.3v0.5c-1,0.1-1.2,0.2-1.2,1.4v5.4
		c0,1.2,0.1,1.3,1.2,1.4V63H265.2L265.2,63z"/>
	<path class="st0" d="M277.9,56c-0.3-0.9-0.8-1.9-2-1.9c-0.8,0-1.4,0.6-1.4,1.4c0,0.8,0.5,1.2,1.8,1.9c1.5,0.7,2.5,1.5,2.5,2.9
		c0,1.6-1.4,2.9-3.5,2.9c-0.5,0-1-0.1-1.4-0.2c-0.4-0.1-0.7-0.2-0.9-0.3c-0.1-0.4-0.3-1.5-0.4-2.4l0.5-0.1c0.3,0.9,1.1,2.5,2.5,2.5
		c0.9,0,1.4-0.6,1.4-1.5c0-0.8-0.6-1.4-1.7-1.9c-1.5-0.7-2.5-1.5-2.5-2.9c0-1.6,1.2-2.8,3.2-2.8c0.9,0,1.7,0.3,2,0.4
		c0.1,0.5,0.1,1.1,0.3,2L277.9,56L277.9,56z"/>
	<path class="st0" d="M287.1,56c-0.3-0.9-0.8-1.9-2-1.9c-0.8,0-1.4,0.6-1.4,1.4c0,0.8,0.5,1.2,1.8,1.9c1.5,0.7,2.5,1.5,2.5,2.9
		c0,1.6-1.4,2.9-3.4,2.9c-0.5,0-1-0.1-1.4-0.2c-0.4-0.1-0.7-0.2-0.9-0.3c-0.1-0.4-0.3-1.5-0.4-2.4l0.5-0.1c0.3,0.9,1.1,2.5,2.5,2.5
		c0.9,0,1.4-0.6,1.4-1.5c0-0.8-0.6-1.4-1.7-1.9c-1.5-0.7-2.5-1.5-2.5-2.9c0-1.6,1.2-2.8,3.2-2.8c0.9,0,1.7,0.3,2,0.4
		c0.1,0.5,0.2,1.1,0.3,2L287.1,56L287.1,56z"/>
	<path class="st0" d="M290.9,63v-0.5c1-0.1,1.2-0.2,1.2-1.4v-5.4c0-1.2-0.1-1.3-1.2-1.4v-0.5h4.3v0.5c-1,0.1-1.2,0.2-1.2,1.4v5.4
		c0,1.2,0.1,1.3,1.2,1.4V63H290.9L290.9,63z"/>
	<path class="st0" d="M301.4,58.6c0.2,0.1,0.5,0.1,0.8,0.1c0.5,0,1.7-0.4,1.7-2.3c0-1.6-0.9-2.1-1.8-2.1c-0.3,0-0.4,0.1-0.5,0.1
		c-0.1,0.1-0.1,0.2-0.1,0.4V58.6L301.4,58.6z M302.3,53.7c1.1,0,1.9,0.2,2.5,0.5c0.7,0.5,1,1.2,1,2.1c0,1.9-1.4,2.8-2.9,3
		c-0.2,0-0.4,0-0.6,0l-1-0.2v1.9c0,1.2,0.1,1.3,1.4,1.4V63h-4.4v-0.5c1.1-0.1,1.2-0.2,1.2-1.4v-5.4c0-1.2-0.1-1.3-1.1-1.4v-0.5
		L302.3,53.7L302.3,53.7z"/>
	<path class="st0" d="M311.7,58.6c0.2,0.1,0.5,0.1,0.8,0.1c0.5,0,1.7-0.4,1.7-2.3c0-1.6-0.9-2.1-1.8-2.1c-0.3,0-0.4,0.1-0.5,0.1
		c-0.1,0.1-0.1,0.2-0.1,0.4V58.6L311.7,58.6z M312.6,53.7c1.1,0,1.9,0.2,2.5,0.5c0.7,0.5,1,1.2,1,2.1c0,1.9-1.4,2.8-2.9,3
		c-0.2,0-0.4,0-0.6,0l-1-0.2v1.9c0,1.2,0.1,1.3,1.4,1.4V63h-4.4v-0.5c1.1-0.1,1.2-0.2,1.2-1.4v-5.4c0-1.2-0.1-1.3-1.1-1.4v-0.5
		L312.6,53.7L312.6,53.7z"/>
	<path class="st0" d="M318.9,63v-0.5c1-0.1,1.2-0.2,1.2-1.4v-5.4c0-1.2-0.1-1.3-1.2-1.4v-0.5h4.3v0.5c-1,0.1-1.2,0.2-1.2,1.4v5.4
		c0,1.2,0.1,1.3,1.2,1.4V63H318.9L318.9,63z"/>
	<path class="st0" d="M229.6,31.8c-0.1-0.4-0.2-0.6-0.3-0.7c-0.1-0.1-0.3-0.2-0.7-0.2h-0.4v3c0,0.7,0.1,0.7,0.7,0.8v0.3h-2.4v-0.3
		c0.6,0,0.7-0.1,0.7-0.8v-3H227c-0.5,0-0.6,0.1-0.8,0.2c-0.1,0.1-0.2,0.3-0.3,0.7h-0.3c0-0.6,0.1-1.1,0.1-1.4h0.2
		c0.1,0.1,0.2,0.2,0.4,0.2h2.9c0.2,0,0.3,0,0.4-0.2h0.2c0,0.3,0,1,0.1,1.4L229.6,31.8L229.6,31.8z"/>
	<path class="st0" d="M235,34.9v-0.3c0.5,0,0.6-0.1,0.6-0.8v-1h-1.9v1c0,0.6,0,0.7,0.5,0.8v0.3H232v-0.3c0.6,0,0.6-0.1,0.6-0.8v-2.3
		c0-0.7-0.1-0.7-0.7-0.8v-0.3h2.3v0.3c-0.5,0.1-0.6,0.1-0.6,0.8v0.8h1.9v-0.8c0-0.7-0.1-0.7-0.6-0.8v-0.3h2.2v0.3
		c-0.6,0.1-0.6,0.1-0.6,0.8v2.3c0,0.7,0.1,0.7,0.6,0.8v0.3L235,34.9L235,34.9z"/>
	<path class="st0" d="M243.4,33.7c0,0.3-0.2,1-0.2,1.2h-3.8v-0.3c0.6,0,0.7-0.1,0.7-0.8v-2.3c0-0.7,0-0.7-0.6-0.7v-0.3h3.6
		c0,0.2,0,0.6,0.1,1.1l-0.3,0c-0.1-0.3-0.2-0.4-0.3-0.5c-0.1-0.1-0.3-0.2-0.8-0.2h-0.4c-0.3,0-0.3,0-0.3,0.3v1.3h0.6
		c0.5,0,0.6-0.1,0.7-0.5h0.3v1.4h-0.3c-0.1-0.4-0.1-0.5-0.7-0.5h-0.6v1c0,0.4,0,0.6,0.2,0.6c0.1,0.1,0.3,0.1,0.7,0.1
		c0.4,0,0.6,0,0.8-0.2c0.1-0.1,0.2-0.3,0.4-0.6L243.4,33.7L243.4,33.7z"/>
	<path class="st0" d="M253.8,30.8c-0.4,0-0.6,0.1-0.6,0.4c0,0.2,0,0.5,0,1.1v0.5c0,0.7-0.1,1.3-0.5,1.7c-0.3,0.3-0.8,0.5-1.3,0.5
		c-0.5,0-0.9-0.1-1.3-0.4c-0.4-0.3-0.6-0.8-0.6-1.6v-1.5c0-0.6,0-0.7-0.6-0.7v-0.3h2.3v0.3c-0.6,0.1-0.6,0.1-0.6,0.7v1.3
		c0,1.1,0.4,1.6,1.1,1.6c0.8,0,1.1-0.6,1.1-1.7v-0.5c0-0.7,0-0.9,0-1.1c0-0.3-0.2-0.4-0.7-0.4v-0.3h1.9L253.8,30.8L253.8,30.8z"/>
	<path class="st0" d="M260.7,30.8c-0.4,0-0.6,0.1-0.6,0.4c0,0.3-0.1,0.6-0.1,1.2v2.5h-0.5l-2.8-3.3l0,0V33c0,0.6,0,1,0,1.2
		c0,0.3,0.2,0.4,0.7,0.4v0.3h-1.9v-0.3c0.4,0,0.6-0.1,0.6-0.4c0-0.2,0.1-0.5,0.1-1.2v-1.2c0-0.8-0.2-0.9-0.8-1v-0.3h1.5l2.5,2.8h0
		v-1c0-0.6,0-0.9-0.1-1.2c0-0.3-0.2-0.4-0.7-0.4v-0.3h1.9L260.7,30.8L260.7,30.8z"/>
	<path class="st0" d="M262.6,34.9v-0.3c0.6,0,0.6-0.1,0.6-0.7v-2.3c0-0.6-0.1-0.7-0.6-0.7v-0.3h2.3v0.3c-0.6,0-0.6,0.1-0.6,0.7v2.3
		c0,0.6,0.1,0.7,0.6,0.7v0.3L262.6,34.9L262.6,34.9z"/>
	<path class="st0" d="M272,30.8c-0.5,0.1-0.6,0.2-0.9,0.7c-0.3,0.6-0.9,2.1-1.5,3.5h-0.4c-0.5-1.2-1.1-2.5-1.5-3.6
		c-0.2-0.5-0.4-0.5-0.8-0.6v-0.3h2.2v0.3l-0.2,0c-0.2,0-0.3,0.1-0.2,0.5c0.3,0.6,0.6,1.5,1,2.4c0.3-0.6,0.8-1.9,0.9-2.3
		c0.1-0.4,0.1-0.5-0.2-0.5l-0.2,0v-0.3h1.7L272,30.8L272,30.8z"/>
	<path class="st0" d="M278,33.7c0,0.3-0.2,1-0.2,1.2h-3.8v-0.3c0.6,0,0.7-0.1,0.7-0.8v-2.3c0-0.7-0.1-0.7-0.6-0.7v-0.3h3.6
		c0,0.2,0,0.6,0.1,1.1l-0.3,0c-0.1-0.3-0.2-0.4-0.3-0.5c-0.1-0.1-0.3-0.2-0.8-0.2h-0.4c-0.3,0-0.3,0-0.3,0.3v1.3h0.6
		c0.5,0,0.6-0.1,0.7-0.5h0.3v1.4h-0.3c-0.1-0.4-0.1-0.5-0.7-0.5h-0.6v1c0,0.4,0,0.6,0.2,0.6c0.1,0.1,0.3,0.1,0.7,0.1
		c0.4,0,0.6,0,0.8-0.2c0.1-0.1,0.2-0.3,0.4-0.6L278,33.7L278,33.7z"/>
	<path class="st0" d="M281.9,32.7c0.3,0,0.5,0,0.7-0.2c0.2-0.1,0.3-0.4,0.3-0.8c0-0.7-0.4-0.9-0.9-0.9c-0.3,0-0.4,0.1-0.4,0.3v1.5
		L281.9,32.7L281.9,32.7z M284.7,35h-0.3c-0.9,0-1.2-0.2-1.5-0.6c-0.2-0.3-0.4-0.7-0.6-1c-0.1-0.2-0.2-0.3-0.5-0.3h-0.1v0.8
		c0,0.6,0.1,0.7,0.6,0.7v0.3H280v-0.3c0.6,0,0.6-0.1,0.6-0.7v-2.4c0-0.6,0-0.7-0.6-0.7v-0.3h2.3c0.5,0,0.9,0,1.2,0.2
		c0.3,0.2,0.5,0.5,0.5,0.9c0,0.6-0.4,0.9-0.9,1.1c0.1,0.2,0.4,0.7,0.6,1c0.2,0.3,0.4,0.5,0.5,0.7c0.1,0.1,0.3,0.2,0.5,0.3L284.7,35
		L284.7,35z"/>
	<path class="st0" d="M289.4,31.8c-0.2-0.6-0.5-1-1.1-1c-0.4,0-0.7,0.3-0.7,0.6c0,0.4,0.4,0.6,0.7,0.7l0.2,0.1
		c0.7,0.3,1.3,0.6,1.3,1.4c0,0.9-0.7,1.4-1.8,1.4c-0.6,0-1.1-0.2-1.3-0.3c-0.1-0.2-0.2-0.7-0.2-1.2l0.3-0.1c0.2,0.5,0.7,1.3,1.3,1.3
		c0.5,0,0.7-0.3,0.7-0.7c0-0.4-0.3-0.6-0.7-0.8l-0.3-0.1c-0.5-0.2-1.2-0.6-1.2-1.3c0-0.8,0.6-1.4,1.7-1.4c0.5,0,0.9,0.1,1,0.2
		c0,0.3,0.1,0.6,0.2,1.1L289.4,31.8L289.4,31.8z"/>
	<path class="st0" d="M292,34.9v-0.3c0.6,0,0.6-0.1,0.6-0.7v-2.3c0-0.6-0.1-0.7-0.6-0.7v-0.3h2.3v0.3c-0.6,0-0.6,0.1-0.6,0.7v2.3
		c0,0.6,0,0.7,0.6,0.7v0.3L292,34.9L292,34.9z"/>
	<path class="st0" d="M300.4,31.8c-0.1-0.4-0.2-0.6-0.3-0.7c-0.1-0.1-0.3-0.2-0.7-0.2h-0.4v3c0,0.7,0.1,0.7,0.7,0.8v0.3h-2.4v-0.3
		c0.6,0,0.7-0.1,0.7-0.8v-3h-0.2c-0.5,0-0.6,0.1-0.8,0.2c-0.1,0.1-0.2,0.3-0.3,0.7h-0.3c0-0.6,0.1-1.1,0.1-1.4h0.2
		c0.1,0.1,0.2,0.2,0.4,0.2h2.9c0.2,0,0.3,0,0.4-0.2h0.2c0,0.3,0,1,0.1,1.4L300.4,31.8L300.4,31.8z"/>
	<path class="st0" d="M307.3,30.8c-0.5,0-0.6,0.1-0.9,0.5c-0.2,0.3-0.4,0.7-0.8,1.4c-0.1,0.2-0.1,0.2-0.1,0.4v0.8
		c0,0.6,0.1,0.7,0.7,0.7v0.3h-2.5v-0.3c0.7-0.1,0.7-0.1,0.7-0.7v-0.7c0-0.2,0-0.3-0.1-0.5c-0.2-0.4-0.5-0.8-0.8-1.4
		c-0.2-0.4-0.4-0.5-0.8-0.5v-0.3h2.1v0.3l-0.3,0c-0.2,0-0.2,0.1-0.1,0.3c0.3,0.5,0.5,1,0.8,1.4c0.3-0.5,0.5-1,0.7-1.3
		c0.1-0.3,0.1-0.4-0.1-0.4l-0.2,0v-0.3h1.7L307.3,30.8L307.3,30.8z"/>
	<path class="st0" d="M315,30.8c-0.6,0-1.2,0.6-1.2,1.9c0,1.2,0.6,2.1,1.3,2.1c0.6,0,1.2-0.5,1.2-1.8
		C316.3,31.8,315.9,30.8,315,30.8L315,30.8L315,30.8z M315.1,30.4c1.5,0,2.4,1,2.4,2.2c0,1.5-1.2,2.4-2.4,2.4
		c-1.6,0-2.4-1.1-2.4-2.2C312.7,31.2,314,30.4,315.1,30.4L315.1,30.4L315.1,30.4z"/>
	<path class="st0" d="M323,31.7c-0.1-0.3-0.1-0.4-0.2-0.6c-0.1-0.1-0.3-0.2-0.8-0.2h-0.5c-0.2,0-0.2,0-0.2,0.3v1.4h0.6
		c0.6,0,0.7,0,0.8-0.5h0.3v1.5h-0.3c-0.1-0.5-0.1-0.6-0.8-0.6h-0.6v0.9c0,0.6,0.1,0.7,0.7,0.7v0.3h-2.4v-0.3c0.6,0,0.6-0.1,0.6-0.7
		v-2.4c0-0.6-0.1-0.7-0.6-0.7v-0.3h3.6c0,0.2,0,0.6,0.1,1.1L323,31.7L323,31.7z"/>
	<path class="st0" d="M204.9,26.2C217.9,30,218,44,218,44l1.3,0.3l-1.1,1.4l0,1.7l1.2,0.2l-1.5,3.5l-0.1,9.8l0.8,0.1l0.3,3.3
		l-11.2-1.4l-15.6,0l-10.9,1.2l0.4-3.3l0.6,0l-0.1-10.9l-1.6-2.4l1.7-0.7l-1.4-3.2l1.3-0.1c1.2-14.4,13.4-17.3,13.4-17.3l-0.4-0.7
		l0-0.9l0.5-0.4v-1.5l0.6-0.9l0.3-0.1l-0.1-7.5l-0.4-0.6l0-0.9l0.6-0.2l0-1l2.8-1.4l0.5-0.7h1.5l0.5,0.7l2.6,1.4l0,1l0.5,0.2
		l-0.1,0.9l-0.4,0.6l-0.1,7.5l0.3,0.1l0.5,0.8v1.5l0.5,0.4l0,0.9L204.9,26.2L204.9,26.2z"/>
	<path class="st1" d="M204.9,26.2C217.9,30,218,44,218,44l1.3,0.3l-1.1,1.4l0,1.7l1.2,0.2l-1.5,3.5l-0.1,9.8l0.8,0.1l0.3,3.3
		l-11.2-1.4l-15.6,0l-10.9,1.2l0.4-3.3l0.6,0l-0.1-10.9l-1.6-2.4l1.7-0.7l-1.4-3.2l1.3-0.1c1.2-14.4,13.4-17.3,13.4-17.3l-0.4-0.7
		l0-0.9l0.5-0.4v-1.5l0.6-0.9l0.3-0.1l-0.1-7.5l-0.4-0.6l0-0.9l0.6-0.2l0-1l2.8-1.4l0.5-0.7h1.5l0.5,0.7l2.6,1.4l0,1l0.5,0.2
		l-0.1,0.9l-0.4,0.6l-0.1,7.5l0.3,0.1l0.5,0.8v1.5l0.5,0.4l0,0.9L204.9,26.2L204.9,26.2z"/>
	<path d="M192.4,59.3c-0.1,1.3-1.2,1.2-1.2,1.2l-7.7,0.7l0.4-11.1c0,0-0.1-1.1,0.6-1.3c0.7-0.2,6.2-1,7-1.1s0.7,1.1,0.7,1.1
		S192.5,58,192.4,59.3L192.4,59.3z M185,45c1.1-0.3,4.2-0.7,5.2-0.9c0.1,0,1.4-0.1,1.7,1c0,0,0.2,0.5,0.1,1.1h0l-8.2,0.9
		C183.9,47.1,183.9,45.3,185,45L185,45z M197,22.6l1-0.3c0.5-0.1,0.3,1.7,0.3,1.7l-1.7,0.2C196.5,22.7,197,22.6,197,22.6L197,22.6z
		 M197.1,21.4l0.1-4.8c0.4,0,0.9,0.3,0.9,1.5l0.1,3.3c-0.1,0.4-0.5,0.4-0.5,0.4C197,22,197.1,21.4,197.1,21.4L197.1,21.4z
		 M197.3,15.1c0-1,0.4-1.2,0.4-1.2c0.7-0.6,0.6,0.4,0.6,0.4l0,1.3l-1,0.4L197.3,15.1L197.3,15.1z M199.7,22.2h1.9c0,0,0.2,0,0.2,0.5
		l0,1.3h-3V23C198.7,23,198.6,22.3,199.7,22.2L199.7,22.2z M194.3,43.7l11.4,0c0.6,0.1,1.4,0.3,1.5,1c0,0,0.1,0.2,0,1.5h-14
		C193.1,45.8,193.1,43.7,194.3,43.7L194.3,43.7z M208,60.6l-0.5-11c0,0-0.3,9.6-0.4,10.2c0,0.7-0.6,0.7-0.6,0.7l-13.5,0l0.2-11.9
		c0,0,0-0.9,0.7-0.8c0.5,0,13.9,0,13.9,0s9,1.2,9.4,1.3c0.4,0.1,0.5,0.5,0.5,0.5l0,0.9l1-2.3l-11-1.8c0-0.5-0.1-2.5,1.2-2.4l9.2,1.2
		l0.4-0.4l-1.1-0.2c-0.1-10.3-7.5-15.4-7.5-15.4c5,5.9,6,11.5,6.2,13.9c0.1,1-0.5,1.1-0.5,1.1l-6.9-1.1c0-0.9,0.4-10.9-6.2-16.4
		c0,0,4,4.5,4.6,14.7c0.2,1.6-1.3,1.5-1.3,1.5l-12.1,0c-0.9-10.4,4.1-16.3,4.1-16.3c-4.4,3.9-6,10.4-6.3,14.1
		c-0.1,2.5-1.5,2.6-1.5,2.6l-5.3,0.7c0.9-13.1,9.8-16.7,11.9-17.4l1.5-0.4l0.3,0c0,0-1.4-0.2-1.3-0.9c0,0-0.1-0.6,0.6-0.7
		c0,0,2.3-0.3,4.4-0.2l2.3,0.5c0,0,0.4,0,0.3,0.5l0,0.3l0.2-0.4l0-0.5l-0.5-0.4L202,24v-1.5c0,0,0-0.2,0.3-0.2l1.5,0.4
		c0,0,0.6,0.2,0.7,0.7l0.1-0.5l-0.4-0.7l-2.5-0.5h0l0-6.1l-2.1,0l0,0.4c0,0,1.5,0.2,1.5,2.2l0.1,3.5l-2.2,0l0-8c0-0.6,1-0.7,1-0.7h2
		c2.2,0.6,2,1,2,1l0.5-0.7v-0.4l-2.6-0.6c-2.9,0.1-3.1-0.1-3.1-0.1c-0.2-0.1,0.3-0.4,0.3-0.4c0.5-0.3,0.4-0.4,0.4-0.4
		c-0.1-0.1-0.2-0.3-0.2-0.3c0.8-0.8,2.2-0.4,2.2-0.4c2.4,0.8,2.6,1.9,2.6,1.9l0-0.9l-2.4-1.4L201,9.7l-1.2,0l-0.4,0.6l-2.6,1.4l0,1
		l-0.6,0.2v0.4l0.5,0.6l0,8.1l-0.3,0.1l-0.4,0.7l0,1.6l-0.5,0.3l0.1,0.6l0.7,0.9l-0.1,0C183.7,29.9,182.6,42,182.5,44l-0.9,0
		l1.3,3.1l-1.6,0.6l1.3,1.8l0,11.6l-0.7,0l-0.2,2.3l10.4-1.2l15.7,0l10.5,1.3l-0.2-2.1L208,60.6L208,60.6z M203.1,18.7l0,3.3
		l0.3,0.1l0-5.8l-1.3-0.5l0,0.5C202.2,16.2,203.1,16.5,203.1,18.7L203.1,18.7z"/>
	<path class="st2" d="M213.9,51.5l0,7.5l2.5,0.2v-7.4L213.9,51.5L213.9,51.5z M209.8,58.6l2.5,0.2v-7.7l-2.5-0.3L209.8,58.6
		L209.8,58.6z M201,58.2h3.6v-7.9h-3.6L201,58.2L201,58.2z M195.5,58.2h3.6v-7.9h-3.6L195.5,58.2L195.5,58.2z M188.7,58.7l2.5-0.3
		l0-7.7l-2.5,0.4L188.7,58.7L188.7,58.7z M184.8,59.2l2.5-0.3l0-7.5l-2.5,0.4L184.8,59.2L184.8,59.2z"/>
	<path d="M213.9,51.5v1c0,0,2,0,2.1,6.7l0.3,0v-7.4L213.9,51.5L213.9,51.5z M209.9,51.8c0,0,2,0.4,2.1,6.9l0.4,0v-7.7l-2.5-0.3
		L209.9,51.8L209.9,51.8z M201,51.5c0,0,3-0.5,3.2,6.7h0.4v-7.9H201V51.5L201,51.5z M195.5,51.6c0,0,3-0.1,3.2,6.7h0.4v-7.9h-3.6
		L195.5,51.6L195.5,51.6z M188.8,52.3c0,0,2-0.3,2.1,6.2l0.4,0l0-7.7l-2.5,0.4L188.8,52.3L188.8,52.3z M184.8,52.8
		c0,0,2.1-0.3,2.1,6.2l0.4,0l0-7.5l-2.5,0.4L184.8,52.8L184.8,52.8z"/>
	<path class="st0" d="M324.8,61.5v0.3h0.2c0.2,0,0.4,0,0.4-0.2c0-0.2-0.1-0.2-0.3-0.2L324.8,61.5L324.8,61.5z M325.7,62.7h-0.2
		l-0.4-0.6h-0.3v0.6h-0.2v-1.4h0.6c0.2,0,0.5,0.1,0.5,0.4c0,0.3-0.2,0.4-0.4,0.4L325.7,62.7L325.7,62.7z M324.1,62c0,0.6,0.5,1,1,1
		s1-0.5,1-1c0-0.6-0.5-1-1-1C324.5,61,324.1,61.4,324.1,62L324.1,62z M323.9,62c0-0.7,0.5-1.2,1.2-1.2c0.7,0,1.2,0.5,1.2,1.2
		s-0.5,1.2-1.2,1.2C324.4,63.2,323.9,62.7,323.9,62L323.9,62z"/>
</g>
<path class="st3" d="M-156.6-64.8"/>
<g>
	<g>
		<path class="st0" d="M138.2,22.7h-1.6v4.5h-0.7v-4.5h-1.7V22h4L138.2,22.7L138.2,22.7z M144.6,27.2h-0.7v-4.3h0l-1.7,4.3h-0.5
			l-1.7-4.3h0v4.3h-0.7V22h1.1l1.6,4l1.6-4h1.1L144.6,27.2L144.6,27.2z"/>
	</g>
	<path class="st0" d="M38.9,21.8V62H26.2L15,39.9c-0.6-1.1-1.4-3-2.6-5.8l-1.3-2.9l-1.2-2.9H9.6L9.7,31l0.1,2.6l0.1,5.3v23H2.4V21.8
		H15l10.2,20.4c0.9,1.8,1.9,4,3.1,6.6l1.5,3.3l1.5,3.3h0.3l-0.1-2.6l-0.1-2.6l-0.1-5.2V21.8L38.9,21.8L38.9,21.8z"/>
	<path class="st0" d="M68.9,47.6h7.5V49c0,5.6-1,9.2-3,10.9s-6.4,2.5-13.2,2.5c-7.8,0-12.5-1.3-14.3-3.9c-1.8-2.6-2.7-9.5-2.7-20.8
		c0-6.6,1.2-11,3.6-13.1s7.5-3.1,15.2-3.1c5.6,0,9.4,0.9,11.2,2.6c1.9,1.7,2.8,5.1,2.8,10.2l0,0.9h-7.5v-1c0-2.6-0.5-4.3-1.5-5
		c-1-0.7-3.2-1.1-6.6-1.1c-4.6,0-7.4,0.6-8.3,1.7s-1.4,4.6-1.4,10.3c0,7.7,0.4,12.2,1.3,13.7c0.8,1.4,3.5,2.1,8.1,2.1
		c3.7,0,6.1-0.4,7.2-1.2c1.1-0.8,1.7-2.5,1.7-5.2L68.9,47.6z"/>
	<path class="st0" d="M111.2,33.5h-7.3c0-0.4-0.1-0.6-0.1-0.8c-0.2-2.2-0.7-3.7-1.5-4.2c-0.8-0.6-2.7-0.9-5.7-0.9
		c-3.5,0-5.8,0.3-6.9,1c-1.1,0.7-1.6,2.1-1.6,4.2c0,2.5,0.4,4,1.3,4.6s3.8,0.9,8.8,1.2c5.9,0.3,9.6,1.2,11.4,2.6
		c1.7,1.4,2.6,4.2,2.6,8.6c0,5.3-1,8.8-3,10.4c-2,1.6-6.5,2.3-13.3,2.3c-6.2,0-10.3-0.8-12.3-2.3c-2-1.5-3-4.6-3-9.3l0-1.5h7.3
		l0,0.9c0,2.8,0.5,4.5,1.4,5.1s3.6,0.9,7.9,0.9c3.3,0,5.5-0.4,6.4-1.1c0.9-0.7,1.4-2.4,1.4-5c0-1.9-0.4-3.2-1.1-3.9
		c-0.7-0.6-2.2-1-4.5-1.2l-4.1-0.3c-6.2-0.4-10.2-1.3-11.9-2.6c-1.7-1.4-2.6-4.4-2.6-9c0-4.7,1-7.8,3.1-9.4
		c2.1-1.6,6.2-2.3,12.5-2.3c5.9,0,9.9,0.7,12,2.1c2.1,1.4,3.1,4.2,3.1,8.4V33.5z"/>
	<path class="st0" d="M129.6,21.5v13h2.3v3h-2.3v4.4h-3.8v-4.4h-10.7v-4.3l8.7-11.6L129.6,21.5L129.6,21.5z M125.8,34.5V24.5h-0.1
		l-7.5,10.1H125.8z"/>
</g>
<line class="st4" x1="158.3" y1="4.5" x2="158.3" y2="70.4"/>
</svg>
