<?xml version="1.0" encoding="utf-8"?>
<!-- Generator: Adobe Illustrator 25.4.1, SVG Export Plug-In . SVG Version: 6.00 Build 0)  -->
<svg version="1.1" id="Layer_1" xmlns="http://www.w3.org/2000/svg" xmlns:xlink="http://www.w3.org/1999/xlink" x="0px" y="0px"
	 viewBox="0 0 68 69" style="enable-background:new 0 0 68 69;" xml:space="preserve">
<style type="text/css">
	.st0{fill:none;stroke:#E6E6E6;stroke-width:1.1804;stroke-linecap:round;stroke-linejoin:round;stroke-miterlimit:10;}
	.st1{fill:none;stroke:#E6E6E6;stroke-width:1.1804;stroke-linecap:round;stroke-miterlimit:10;}
</style>
<g>
	<path class="st0" d="M38.49,37.78c0.71-6.37-2.95-10.62-2.95-10.62l-1.18,1.77c0-2.95-1.77-4.72-1.77-4.72
		c-5.9-7.08-18.89-6.49-18.89-6.49c0.59,8.26,3.54,12.39,8.26,12.98c-0.96,0.91-3.54,1.18-3.54,1.18
		c6.96,9.09,15.34,8.85,15.34,8.85"/>
	<path class="st1" d="M39.67,44.86c0,0-6.49-11.8-14.75-18.3"/>
	<path class="st0" d="M27.87,17.71H50.3c-4.41,12.74-1.5,25.88-0.38,29.98c0.68,2.48-0.5,5.18-2.87,6.19
		c-0.64,0.27-1.33,0.42-2.06,0.42c-2.92,0-5.31-2.39-5.31-5.31H20.2c0,2.92,2.39,5.31,5.31,5.31h19.48"/>
	<line class="st1" x1="41.44" y1="33.65" x2="44.39" y2="33.65"/>
	<line class="st1" x1="40.26" y1="28.92" x2="44.39" y2="28.92"/>
	<line class="st1" x1="36.72" y1="24.2" x2="44.98" y2="24.2"/>
	<path class="st1" d="M24.92,38.37c0,4.13,1.18,7.08,1.18,7.08"/>
</g>
</svg>
