<?xml version="1.0" encoding="utf-8"?>
<!-- Generator: Adobe Illustrator 25.4.1, SVG Export Plug-In . SVG Version: 6.00 Build 0)  -->
<svg version="1.1" id="Layer_1" xmlns="http://www.w3.org/2000/svg" xmlns:xlink="http://www.w3.org/1999/xlink" x="0px" y="0px"
	 viewBox="0 0 68 69" style="enable-background:new 0 0 68 69;" xml:space="preserve">
<style type="text/css">
	.st0{fill:none;stroke:#E6E6E6;stroke-width:1.25;stroke-linejoin:round;stroke-miterlimit:10;}
	.st1{fill:none;stroke:#E6E6E6;stroke-width:1.25;stroke-miterlimit:10;}
	.st2{fill:none;stroke:#E6E6E6;stroke-width:1.25;stroke-linecap:round;stroke-linejoin:round;stroke-miterlimit:10;}
</style>
<g>
	<polyline class="st0" points="29.8,38.88 49.63,38.88 49.63,18.31 14.37,18.31 14.37,39.62 	"/>
	<path class="st1" d="M17.31,39.62v-6.61c0-1.22,0.99-2.2,2.2-2.2h16.9c0.81,0,1.47,0.66,1.47,1.47c0,0.81-0.66,1.47-1.47,1.47
		h-8.08c-0.41,0-0.73,0.33-0.73,0.73v5.14"/>
	<path class="st2" d="M20.24,44.76c0,2.2-1.32,3.67-2.94,3.67c-1.62,0-2.94-1.47-2.94-3.67c0-1.62,1.32-2.94,2.94-2.94
		C18.93,41.82,20.24,43.14,20.24,44.76z M49.63,44.76c0,2.2-1.32,3.67-2.94,3.67c-1.62,0-2.94-1.47-2.94-3.67
		c0-1.62,1.32-2.94,2.94-2.94C48.32,41.82,49.63,43.14,49.63,44.76z M34.94,44.76c0,2.2-1.32,3.67-2.94,3.67
		c-1.62,0-2.94-1.47-2.94-3.67c0-1.62,1.32-2.94,2.94-2.94C33.62,41.82,34.94,43.14,34.94,44.76z M26.12,25.66
		c0,2.2-1.32,3.67-2.94,3.67s-2.94-1.47-2.94-3.67c0-1.62,1.32-2.94,2.94-2.94S26.12,24.04,26.12,25.66z"/>
	<path class="st1" d="M31.27,27.86h11.76 M31.27,24.92h14.69 M52.57,54.31v-2.05c0-0.58-0.33-1.1-0.86-1.34
		c-0.96-0.43-2.69-1.02-4.99-1.02c-2.31,0-4.07,0.59-5.04,1.02c-0.53,0.23-0.87,0.76-0.87,1.34v2.04 M37.88,54.31v-2.05
		c0-0.58-0.33-1.1-0.86-1.34c-0.96-0.43-2.69-1.02-4.99-1.02c-2.31,0-4.07,0.59-5.04,1.02c-0.53,0.23-0.87,0.76-0.87,1.34v2.04
		 M23.18,54.31v-2.05c0-0.58-0.33-1.1-0.86-1.34c-0.96-0.43-2.69-1.02-4.99-1.02c-2.31,0-4.07,0.59-5.04,1.02
		c-0.53,0.23-0.87,0.76-0.87,1.34v2.04"/>
</g>
</svg>
